<svg width="42" height="29" viewBox="0 0 42 29" fill="none" xmlns="http://www.w3.org/2000/svg">
<path d="M16.164 16.5519L14.7474 12.1144C13.7031 9.01927 12.8467 6.07418 11.9144 2.86705H11.7644C10.87 6.11216 9.97377 9.01927 8.96739 12.1144L7.55086 16.5519H16.164ZM16.9482 18.9748H6.76854L3.97156 27.5898H0.876465L10.1978 0.294136H13.5929L22.9504 27.5898H19.6711L16.9482 18.9748Z" fill="#333333"/>
<path d="M39.317 15.9939C39.317 11.6683 37.3783 9.39161 34.0952 9.39161C31.114 9.39161 28.4652 11.8164 28.055 15.9939H39.317ZM25.072 17.5585C25.072 10.9961 29.4355 6.93262 34.0572 6.93262C39.0929 6.93262 42 10.5499 42 16.366C42 17.0382 41.964 17.7085 41.8519 18.1927H28.093C28.2791 22.6682 30.964 25.6513 34.9915 25.6513C36.9681 25.6513 38.6087 25.0171 40.0993 24.0107L41.2177 26.0235C39.4651 27.1419 37.4144 28.0742 34.6174 28.0742C29.3215 28.0742 25.072 24.1607 25.072 17.5585Z" fill="#333333"/>
</svg>
