<?xml version="1.0" encoding="UTF-8" standalone="no"?>
<svg
   width="225"
   height="225"
   viewBox="0 0 225 225"
   fill="none"
   version="1.1"
   id="svg1622"
   sodipodi:docname="avatar.svg"
   inkscape:version="1.1.1 (3bf5ae0d25, 2021-09-20)"
   xmlns:inkscape="http://www.inkscape.org/namespaces/inkscape"
   xmlns:sodipodi="http://sodipodi.sourceforge.net/DTD/sodipodi-0.dtd"
   xmlns="http://www.w3.org/2000/svg"
   xmlns:svg="http://www.w3.org/2000/svg">
  <defs
     id="defs1626" />
  <sodipodi:namedview
     id="namedview1624"
     pagecolor="#ffffff"
     bordercolor="#666666"
     borderopacity="1.0"
     inkscape:pageshadow="2"
     inkscape:pageopacity="0.0"
     inkscape:pagecheckerboard="0"
     showgrid="false"
     inkscape:zoom="3.5733333"
     inkscape:cx="112.5"
     inkscape:cy="112.5"
     inkscape:current-layer="svg1622" />
  <mask
     id="mask0_0_1"
     style="mask-type:luminance"
     maskUnits="userSpaceOnUse"
     x="0"
     y="0"
     width="225"
     height="225">
    <path
       d="M0 -3.35345e-06H225V225H0V-3.35345e-06Z"
       fill="white"
       id="path1555" />
  </mask>
  <g
     mask="url(#mask0_0_1)"
     id="g1618">
    <path
       d="M223.843 112.009C223.843 173.671 173.857 223.657 112.195 223.657C50.5325 223.657 0.542786 173.671 0.542786 112.009C0.542786 50.3466 50.5325 0.360426 112.195 0.360426C173.857 0.360426 223.843 50.3466 223.843 112.009Z"
       fill="white"
       id="path1558" />
    <path
       d="M94.1327 149.235C84.949 145.408 82.1429 142.092 80.3572 140.816C80.8674 142.347 82.7825 147.857 82.7825 151.531C82.7825 156.122 81.8878 159.949 80.3572 166.071C79.2263 170.595 78.5714 174.49 78.8265 176.02C83.4184 172.194 88.7755 169.133 91.9662 162.245C93.926 158.014 94.3878 152.041 94.1327 149.235Z"
       fill="#97A9BF"
       id="path1560" />
    <path
       d="M170.663 103.316L168.367 107.143"
       stroke="#333333"
       stroke-width="1.3"
       stroke-linecap="round"
       stroke-linejoin="round"
       id="path1562" />
    <path
       d="M93.3673 148.469C93.6224 149.49 94.1326 153.061 93.3673 156.888"
       stroke="#333333"
       stroke-width="1.3"
       stroke-linecap="round"
       stroke-linejoin="round"
       id="path1564" />
    <path
       d="M112.081 152.308C101.212 152.308 86.4796 146.173 80.3571 141.582"
       stroke="#333333"
       stroke-width="1.3"
       stroke-miterlimit="10"
       stroke-linecap="round"
       id="path1566" />
    <path
       d="M111.927 113.265C110.689 116.265 109.599 116.52 110.589 118.234C111.33 119.514 112.951 119.365 112.951 119.365"
       stroke="#333333"
       stroke-width="1.3"
       stroke-miterlimit="10"
       stroke-linecap="round"
       id="path1568" />
    <path
       d="M97.9592 122.449C97.9592 122.449 111.5 132 125.111 122.449"
       stroke="#333333"
       stroke-width="1.3"
       stroke-miterlimit="10"
       stroke-linecap="round"
       id="path1570" />
    <path
       d="M134.166 90.2463C131.376 90.2463 129.114 94.1774 129.114 99.0291C129.114 103.881 131.376 107.815 134.166 107.815C136.955 107.815 139.217 103.881 139.217 99.0291C139.217 94.1774 136.955 90.2463 134.166 90.2463Z"
       fill="#333333"
       id="path1572" />
    <path
       d="M134.698 92.1174C134.698 92.1174 139.598 92.7484 142.332 90.5829"
       stroke="#333333"
       stroke-width="1.3"
       stroke-miterlimit="10"
       stroke-linecap="round"
       id="path1574" />
    <path
       d="M125.51 86.4991C125.51 86.4991 133.234 81.3991 139.814 86.3371"
       stroke="#333333"
       stroke-width="1.3"
       stroke-miterlimit="10"
       stroke-linecap="round"
       id="path1576" />
    <path
       d="M65.884 182.113C56.4365 187.583 50.9668 189.572 44.7514 200.76C45.9945 205.111 78.3243 224.784 113.743 223.757C156.63 222.514 179.627 200.76 179.627 200.76C179.627 200.76 176.519 191.436 156.008 182.113C144.405 176.839 137.362 171.547 135.497 169.061C131.975 170.925 124.309 175.898 111.257 175.276C100.319 174.755 90.7458 169.682 88.2597 167.818C87.2237 168.854 85.1519 170.801 82.6657 172.79C79.558 175.276 77.6934 175.276 65.884 182.113Z"
       fill="#EFEFF0"
       id="path1578" />
    <path
       d="M85.4755 99.0307C85.4755 103.882 87.7376 107.813 90.5272 107.813C93.3169 107.813 95.5789 103.882 95.5789 99.0307C95.5789 94.1789 93.3169 90.2479 90.5272 90.2479C87.7376 90.2479 85.4755 94.1789 85.4755 99.0307Z"
       fill="#333333"
       id="path1580" />
    <path
       d="M89.7169 92.3059C89.7169 92.3059 84.8169 92.9369 82.0824 90.7679"
       stroke="#333333"
       stroke-width="1.3"
       stroke-miterlimit="10"
       stroke-linecap="round"
       id="path1582" />
    <path
       d="M98.4906 86.4095C98.4906 86.4095 90.7079 81.3991 84.1837 86.4129"
       stroke="#333333"
       stroke-width="1.3"
       stroke-miterlimit="10"
       stroke-linecap="round"
       id="path1584" />
    <path
       d="M79.5919 80.2457C82.585 77.2767 91.8919 72.8181 98.347 73.5491"
       stroke="#333333"
       stroke-width="1.3"
       stroke-miterlimit="10"
       stroke-linecap="round"
       id="path1586" />
    <path
       d="M144.265 80.2457C141.272 77.2767 131.965 72.8181 125.51 73.5491"
       stroke="#333333"
       stroke-width="1.3"
       stroke-miterlimit="10"
       stroke-linecap="round"
       id="path1588" />
    <path
       d="M49.8042 193.269C48.1593 194.907 46.7318 197.152 45.7835 199.169"
       stroke="#333333"
       stroke-width="1.3"
       stroke-miterlimit="10"
       stroke-linecap="round"
       id="path1590" />
    <path
       d="M46.1655 96.9951C43.2448 97.3295 40.4138 99.3054 40.3483 105.685C40.2724 113.271 43.6966 118.795 48.4241 121.043"
       stroke="#333333"
       stroke-width="1.3"
       stroke-miterlimit="10"
       stroke-linecap="round"
       id="path1592" />
    <path
       d="M167.096 121.375C167.096 121.375 159.63 139.403 162.779 150.693C165.923 161.982 171.313 162.251 173.62 173.793C175.93 185.331 170.989 190.438 170.989 190.438C170.989 190.438 140.327 176.089 136.282 170.141C129.337 164.541 130.102 150 130.102 150C130.102 150 140.986 146.677 150.765 136.99C157.653 131.633 164.541 120.153 164.541 120.153L167.096 121.375Z"
       fill="#97A9BF"
       id="path1594" />
    <path
       d="M172.194 101.02C172.194 101.02 183.674 94.8979 184.627 106.705C184.765 120.212 171.723 128.253 165.306 120.153"
       stroke="#333333"
       stroke-width="1.3"
       stroke-miterlimit="10"
       stroke-linecap="round"
       id="path1596" />
    <path
       d="M76.5306 176.786C85.7143 171.429 90.3061 166.837 92.6021 159.949"
       stroke="#333333"
       stroke-width="1.3"
       stroke-linecap="round"
       stroke-linejoin="round"
       id="path1598" />
    <path
       d="M172.194 101.02C167.602 104.847 175.327 90.586 156.97 74.1879C145.56 63.9933 139.075 53.4499 136.359 47.0457C135.231 44.386 131.973 43.5371 129.592 45.1716C110.749 58.0963 92.526 60.7172 75.5185 80.0038C55.4851 102.715 66.0038 117.816 73.3521 127.542C85.4314 143.532 84.8994 152.159 83.1945 159.831C81.7325 166.405 77.072 175.881 79.8761 181.957C82.7999 188.287 89.0949 189.115 91.4622 189.221C92.9276 189.288 94.1183 190.602 93.7484 192.018C92.0012 198.704 74.9197 209.582 57.1337 201.712C48.9716 198.098 36.3076 182.486 44.4485 163.625C47.2737 157.077 59.7193 152.088 50.4441 127.542C34.5181 85.3865 60.9241 51.1179 60.9241 51.1179C60.9241 51.1179 77.8048 21.3548 109.453 21.4287C121.058 21.4559 133.163 24.4898 136.99 30.6123C147.704 27.5511 160.655 45.8999 165.741 55.25C165.741 55.25 172.663 68.0796 173.449 82.7304C174.235 97.3812 172.194 101.02 172.194 101.02Z"
       fill="#C7D3DF"
       id="path1600" />
    <path
       d="M45.9183 89.5408C44.3877 96.6837 43.7755 111.888 50.5102 127.806C58.9285 147.704 52.4128 150.975 46.6836 160.714C39.0306 173.725 40.5612 185.204 48.2142 195.153"
       stroke="#333333"
       stroke-width="1.3"
       stroke-linecap="round"
       id="path1602" />
    <path
       d="M169.133 91.8367C167.602 87.5 165.839 82.1626 157.653 75C151.531 69.6429 145.408 63.5204 143.112 59.6939C139.058 52.9374 137.755 46.6837 135.459 45.1531C133.163 43.6225 130.102 44.3878 127.806 46.6837"
       stroke="#333333"
       stroke-width="1.3"
       stroke-linecap="round"
       stroke-linejoin="round"
       id="path1604" />
    <path
       d="M130.102 150C130.102 150 129.03 162.245 135.397 169.237C146.176 181.075 172.118 185.806 178.611 199.617"
       stroke="#333333"
       stroke-width="1.3"
       stroke-miterlimit="10"
       stroke-linecap="round"
       id="path1606" />
    <path
       d="M112.081 152.308C134.596 152.308 154.63 139.061 165.154 119.388"
       stroke="#333333"
       stroke-width="1.3"
       stroke-miterlimit="10"
       stroke-linecap="round"
       id="path1608" />
    <path
       d="M50.5102 72.7041C53.5714 64.2858 58.1633 49.745 71.9388 36.7348C91.3866 18.3674 117.092 19.1327 130.867 25.2551C134.598 26.913 137.245 29.847 136.99 30.6123C138.01 29.9021 141.962 29.7531 144.643 31.3776C169.898 46.6837 177.551 83.4184 172.194 101.02"
       stroke="#333333"
       stroke-width="1.3"
       stroke-linecap="round"
       stroke-linejoin="round"
       id="path1610" />
    <path
       d="M46.6837 85.7142C47.449 81.1224 48.3673 77.602 48.9796 75.7653"
       stroke="#333333"
       stroke-width="1.3"
       stroke-linecap="round"
       stroke-linejoin="round"
       id="path1612" />
    <path
       d="M68.1123 91.0714C63.5204 97.1939 61.9717 106.378 66.1809 114.796C73.0687 128.571 76.5306 131.633 81.1225 140.816C85.3316 149.235 84.1837 156.888 83.0177 161.48"
       stroke="#333333"
       stroke-width="1.3"
       stroke-linecap="round"
       stroke-linejoin="round"
       id="path1614" />
    <path
       d="M178.103 106.79C174.98 106.314 171.164 110.975 170.009 113.153C169.494 116.123 174.025 108.365 177.719 109.005C180.104 109.419 179.458 112.414 180.466 111.083C181.39 109.863 180.374 107.135 178.103 106.79Z"
       fill="#E0E0E0"
       id="path1616" />
  </g>
  <path
     d="M88.7755 168.367C88.7755 168.367 109.873 183.459 135.397 169.235"
     stroke="#333333"
     stroke-width="1.3"
     stroke-miterlimit="10"
     stroke-linecap="round"
     id="path1620" />
</svg>
