<?xml version="1.0" encoding="UTF-8" standalone="no"?>
<svg
   width="108"
   height="45"
   viewBox="0 0 108 45"
   fill="none"
   version="1.1"
   id="svg1853"
   sodipodi:docname="dots-s.svg"
   inkscape:version="1.1.1 (3bf5ae0d25, 2021-09-20)"
   xmlns:inkscape="http://www.inkscape.org/namespaces/inkscape"
   xmlns:sodipodi="http://sodipodi.sourceforge.net/DTD/sodipodi-0.dtd"
   xmlns="http://www.w3.org/2000/svg"
   xmlns:svg="http://www.w3.org/2000/svg">
  <defs
     id="defs1857" />
  <sodipodi:namedview
     id="namedview1855"
     pagecolor="#ffffff"
     bordercolor="#666666"
     borderopacity="1.0"
     inkscape:pageshadow="2"
     inkscape:pageopacity="0.0"
     inkscape:pagecheckerboard="0"
     showgrid="false"
     inkscape:zoom="15.657407"
     inkscape:cx="54.031934"
     inkscape:cy="22.481372"
     inkscape:current-layer="svg1853" />
  <circle
     cx="2.66667"
     cy="4.66667"
     r="2.66667"
     fill="#97A9BF"
     id="circle1733" />
  <circle
     cx="12"
     cy="4.66667"
     r="2.66667"
     fill="#97A9BF"
     id="circle1735" />
  <circle
     cx="21.3333"
     cy="4.66667"
     r="2.66667"
     fill="#97A9BF"
     id="circle1737" />
  <circle
     cx="30.6667"
     cy="4.66667"
     r="2.66667"
     fill="#97A9BF"
     id="circle1739" />
  <circle
     cx="40"
     cy="4.66667"
     r="2.66667"
     fill="#97A9BF"
     id="circle1741" />
  <circle
     cx="49.3333"
     cy="4.66667"
     r="2.66667"
     fill="#97A9BF"
     id="circle1743" />
  <circle
     cx="2.66667"
     cy="14"
     r="2.66667"
     fill="#97A9BF"
     id="circle1745" />
  <circle
     cx="12"
     cy="14"
     r="2.66667"
     fill="#97A9BF"
     id="circle1747" />
  <circle
     cx="21.3333"
     cy="14"
     r="2.66667"
     fill="#97A9BF"
     id="circle1749" />
  <circle
     cx="30.6667"
     cy="14"
     r="2.66667"
     fill="#97A9BF"
     id="circle1751" />
  <circle
     cx="40"
     cy="14"
     r="2.66667"
     fill="#97A9BF"
     id="circle1753" />
  <circle
     cx="49.3333"
     cy="14"
     r="2.66667"
     fill="#97A9BF"
     id="circle1755" />
  <circle
     cx="2.66667"
     cy="23.3334"
     r="2.66667"
     fill="#97A9BF"
     id="circle1757" />
  <circle
     cx="12"
     cy="23.3334"
     r="2.66667"
     fill="#97A9BF"
     id="circle1759" />
  <circle
     cx="21.3333"
     cy="23.3334"
     r="2.66667"
     fill="#97A9BF"
     id="circle1761" />
  <circle
     cx="30.6667"
     cy="23.3334"
     r="2.66667"
     fill="#97A9BF"
     id="circle1763" />
  <circle
     cx="40"
     cy="23.3334"
     r="2.66667"
     fill="#97A9BF"
     id="circle1765" />
  <circle
     cx="49.3333"
     cy="23.3334"
     r="2.66667"
     fill="#97A9BF"
     id="circle1767" />
  <circle
     cx="2.66667"
     cy="32.6667"
     r="2.66667"
     fill="#97A9BF"
     id="circle1769" />
  <circle
     cx="12"
     cy="32.6667"
     r="2.66667"
     fill="#97A9BF"
     id="circle1771" />
  <circle
     cx="21.3333"
     cy="32.6667"
     r="2.66667"
     fill="#97A9BF"
     id="circle1773" />
  <circle
     cx="30.6667"
     cy="32.6667"
     r="2.66667"
     fill="#97A9BF"
     id="circle1775" />
  <circle
     cx="40"
     cy="32.6667"
     r="2.66667"
     fill="#97A9BF"
     id="circle1777" />
  <circle
     cx="49.3333"
     cy="32.6667"
     r="2.66667"
     fill="#97A9BF"
     id="circle1779" />
  <circle
     cx="2.66667"
     cy="42"
     r="2.66667"
     fill="#97A9BF"
     id="circle1781" />
  <circle
     cx="12"
     cy="42"
     r="2.66667"
     fill="#97A9BF"
     id="circle1783" />
  <circle
     cx="21.3333"
     cy="42"
     r="2.66667"
     fill="#97A9BF"
     id="circle1785" />
  <circle
     cx="30.6667"
     cy="42"
     r="2.66667"
     fill="#97A9BF"
     id="circle1787" />
  <circle
     cx="40"
     cy="42"
     r="2.66667"
     fill="#97A9BF"
     id="circle1789" />
  <circle
     cx="49.3333"
     cy="42"
     r="2.66667"
     fill="#97A9BF"
     id="circle1791" />
  <circle
     cx="58.6667"
     cy="4.66667"
     r="2.66667"
     fill="#97A9BF"
     id="circle1793" />
  <circle
     cx="68"
     cy="4.66667"
     r="2.66667"
     fill="#97A9BF"
     id="circle1795" />
  <circle
     cx="77.3333"
     cy="4.66667"
     r="2.66667"
     fill="#97A9BF"
     id="circle1797" />
  <circle
     cx="86.6667"
     cy="4.66667"
     r="2.66667"
     fill="#97A9BF"
     id="circle1799" />
  <circle
     cx="96"
     cy="4.66667"
     r="2.66667"
     fill="#97A9BF"
     id="circle1801" />
  <circle
     cx="105.333"
     cy="4.66667"
     r="2.66667"
     fill="#97A9BF"
     id="circle1803" />
  <circle
     cx="58.6667"
     cy="14"
     r="2.66667"
     fill="#97A9BF"
     id="circle1805" />
  <circle
     cx="68"
     cy="14"
     r="2.66667"
     fill="#97A9BF"
     id="circle1807" />
  <circle
     cx="77.3333"
     cy="14"
     r="2.66667"
     fill="#97A9BF"
     id="circle1809" />
  <circle
     cx="86.6667"
     cy="14"
     r="2.66667"
     fill="#97A9BF"
     id="circle1811" />
  <circle
     cx="96"
     cy="14"
     r="2.66667"
     fill="#97A9BF"
     id="circle1813" />
  <circle
     cx="105.333"
     cy="14"
     r="2.66667"
     fill="#97A9BF"
     id="circle1815" />
  <circle
     cx="58.6667"
     cy="23.3334"
     r="2.66667"
     fill="#97A9BF"
     id="circle1817" />
  <circle
     cx="68"
     cy="23.3334"
     r="2.66667"
     fill="#97A9BF"
     id="circle1819" />
  <circle
     cx="77.3333"
     cy="23.3334"
     r="2.66667"
     fill="#97A9BF"
     id="circle1821" />
  <circle
     cx="86.6667"
     cy="23.3334"
     r="2.66667"
     fill="#97A9BF"
     id="circle1823" />
  <circle
     cx="96"
     cy="23.3334"
     r="2.66667"
     fill="#97A9BF"
     id="circle1825" />
  <circle
     cx="105.333"
     cy="23.3334"
     r="2.66667"
     fill="#97A9BF"
     id="circle1827" />
  <circle
     cx="58.6667"
     cy="32.6667"
     r="2.66667"
     fill="#97A9BF"
     id="circle1829" />
  <circle
     cx="68"
     cy="32.6667"
     r="2.66667"
     fill="#97A9BF"
     id="circle1831" />
  <circle
     cx="77.3333"
     cy="32.6667"
     r="2.66667"
     fill="#97A9BF"
     id="circle1833" />
  <circle
     cx="86.6667"
     cy="32.6667"
     r="2.66667"
     fill="#97A9BF"
     id="circle1835" />
  <circle
     cx="96"
     cy="32.6667"
     r="2.66667"
     fill="#97A9BF"
     id="circle1837" />
  <circle
     cx="105.333"
     cy="32.6667"
     r="2.66667"
     fill="#97A9BF"
     id="circle1839" />
  <circle
     cx="58.6667"
     cy="42"
     r="2.66667"
     fill="#97A9BF"
     id="circle1841" />
  <circle
     cx="68"
     cy="42"
     r="2.66667"
     fill="#97A9BF"
     id="circle1843" />
  <circle
     cx="77.3333"
     cy="42"
     r="2.66667"
     fill="#97A9BF"
     id="circle1845" />
  <circle
     cx="86.6667"
     cy="42"
     r="2.66667"
     fill="#97A9BF"
     id="circle1847" />
  <circle
     cx="96"
     cy="42"
     r="2.66667"
     fill="#97A9BF"
     id="circle1849" />
  <circle
     cx="105.333"
     cy="42"
     r="2.66667"
     fill="#97A9BF"
     id="circle1851" />
</svg>
