<?xml version="1.0" encoding="UTF-8" standalone="no"?>
<svg
   width="108"
   height="89"
   viewBox="0 0 108 89"
   fill="none"
   version="1.1"
   id="svg1314"
   sodipodi:docname="dots.svg"
   inkscape:version="1.1.1 (3bf5ae0d25, 2021-09-20)"
   xmlns:inkscape="http://www.inkscape.org/namespaces/inkscape"
   xmlns:sodipodi="http://sodipodi.sourceforge.net/DTD/sodipodi-0.dtd"
   xmlns="http://www.w3.org/2000/svg"
   xmlns:svg="http://www.w3.org/2000/svg">
  <defs
     id="defs1318" />
  <sodipodi:namedview
     id="namedview1316"
     pagecolor="#ffffff"
     bordercolor="#666666"
     borderopacity="1.0"
     inkscape:pageshadow="2"
     inkscape:pageopacity="0.0"
     inkscape:pagecheckerboard="0"
     showgrid="false"
     inkscape:zoom="7.3146067"
     inkscape:cx="54.001536"
     inkscape:cy="44.568356"
     inkscape:current-layer="svg1314" />
  <circle
     cx="2.66667"
     cy="2.66667"
     r="2.66667"
     fill="#97A9BF"
     id="circle1074" />
  <circle
     cx="12"
     cy="2.66667"
     r="2.66667"
     fill="#97A9BF"
     id="circle1076" />
  <circle
     cx="21.3334"
     cy="2.66667"
     r="2.66667"
     fill="#97A9BF"
     id="circle1078" />
  <circle
     cx="30.6667"
     cy="2.66667"
     r="2.66667"
     fill="#97A9BF"
     id="circle1080" />
  <circle
     cx="40"
     cy="2.66667"
     r="2.66667"
     fill="#97A9BF"
     id="circle1082" />
  <circle
     cx="49.3334"
     cy="2.66667"
     r="2.66667"
     fill="#97A9BF"
     id="circle1084" />
  <circle
     cx="2.66667"
     cy="12"
     r="2.66667"
     fill="#97A9BF"
     id="circle1086" />
  <circle
     cx="12"
     cy="12"
     r="2.66667"
     fill="#97A9BF"
     id="circle1088" />
  <circle
     cx="21.3334"
     cy="12"
     r="2.66667"
     fill="#97A9BF"
     id="circle1090" />
  <circle
     cx="30.6667"
     cy="12"
     r="2.66667"
     fill="#97A9BF"
     id="circle1092" />
  <circle
     cx="40"
     cy="12"
     r="2.66667"
     fill="#97A9BF"
     id="circle1094" />
  <circle
     cx="49.3334"
     cy="12"
     r="2.66667"
     fill="#97A9BF"
     id="circle1096" />
  <circle
     cx="2.66667"
     cy="21.3333"
     r="2.66667"
     fill="#97A9BF"
     id="circle1098" />
  <circle
     cx="12"
     cy="21.3333"
     r="2.66667"
     fill="#97A9BF"
     id="circle1100" />
  <circle
     cx="21.3334"
     cy="21.3333"
     r="2.66667"
     fill="#97A9BF"
     id="circle1102" />
  <circle
     cx="30.6667"
     cy="21.3333"
     r="2.66667"
     fill="#97A9BF"
     id="circle1104" />
  <circle
     cx="40"
     cy="21.3333"
     r="2.66667"
     fill="#97A9BF"
     id="circle1106" />
  <circle
     cx="49.3334"
     cy="21.3333"
     r="2.66667"
     fill="#97A9BF"
     id="circle1108" />
  <circle
     cx="2.66667"
     cy="30.6667"
     r="2.66667"
     fill="#97A9BF"
     id="circle1110" />
  <circle
     cx="12"
     cy="30.6667"
     r="2.66667"
     fill="#97A9BF"
     id="circle1112" />
  <circle
     cx="21.3334"
     cy="30.6667"
     r="2.66667"
     fill="#97A9BF"
     id="circle1114" />
  <circle
     cx="30.6667"
     cy="30.6667"
     r="2.66667"
     fill="#97A9BF"
     id="circle1116" />
  <circle
     cx="40"
     cy="30.6667"
     r="2.66667"
     fill="#97A9BF"
     id="circle1118" />
  <circle
     cx="49.3334"
     cy="30.6667"
     r="2.66667"
     fill="#97A9BF"
     id="circle1120" />
  <circle
     cx="2.66667"
     cy="40"
     r="2.66667"
     fill="#97A9BF"
     id="circle1122" />
  <circle
     cx="12"
     cy="40"
     r="2.66667"
     fill="#97A9BF"
     id="circle1124" />
  <circle
     cx="21.3334"
     cy="40"
     r="2.66667"
     fill="#97A9BF"
     id="circle1126" />
  <circle
     cx="30.6667"
     cy="40"
     r="2.66667"
     fill="#97A9BF"
     id="circle1128" />
  <circle
     cx="40"
     cy="40"
     r="2.66667"
     fill="#97A9BF"
     id="circle1130" />
  <circle
     cx="49.3334"
     cy="40"
     r="2.66667"
     fill="#97A9BF"
     id="circle1132" />
  <circle
     cx="2.66667"
     cy="49.3333"
     r="2.66667"
     fill="#97A9BF"
     id="circle1134" />
  <circle
     cx="12"
     cy="49.3333"
     r="2.66667"
     fill="#97A9BF"
     id="circle1136" />
  <circle
     cx="21.3334"
     cy="49.3333"
     r="2.66667"
     fill="#97A9BF"
     id="circle1138" />
  <circle
     cx="30.6667"
     cy="49.3333"
     r="2.66667"
     fill="#97A9BF"
     id="circle1140" />
  <circle
     cx="40"
     cy="49.3333"
     r="2.66667"
     fill="#97A9BF"
     id="circle1142" />
  <circle
     cx="49.3334"
     cy="49.3333"
     r="2.66667"
     fill="#97A9BF"
     id="circle1144" />
  <circle
     cx="2.66667"
     cy="58.6666"
     r="2.66667"
     fill="#97A9BF"
     id="circle1146" />
  <circle
     cx="12"
     cy="58.6666"
     r="2.66667"
     fill="#97A9BF"
     id="circle1148" />
  <circle
     cx="21.3334"
     cy="58.6666"
     r="2.66667"
     fill="#97A9BF"
     id="circle1150" />
  <circle
     cx="30.6667"
     cy="58.6666"
     r="2.66667"
     fill="#97A9BF"
     id="circle1152" />
  <circle
     cx="40"
     cy="58.6666"
     r="2.66667"
     fill="#97A9BF"
     id="circle1154" />
  <circle
     cx="49.3334"
     cy="58.6666"
     r="2.66667"
     fill="#97A9BF"
     id="circle1156" />
  <circle
     cx="2.66667"
     cy="67.9999"
     r="2.66667"
     fill="#97A9BF"
     id="circle1158" />
  <circle
     cx="12"
     cy="67.9999"
     r="2.66667"
     fill="#97A9BF"
     id="circle1160" />
  <circle
     cx="21.3334"
     cy="67.9999"
     r="2.66667"
     fill="#97A9BF"
     id="circle1162" />
  <circle
     cx="30.6667"
     cy="67.9999"
     r="2.66667"
     fill="#97A9BF"
     id="circle1164" />
  <circle
     cx="40"
     cy="67.9999"
     r="2.66667"
     fill="#97A9BF"
     id="circle1166" />
  <circle
     cx="49.3334"
     cy="67.9999"
     r="2.66667"
     fill="#97A9BF"
     id="circle1168" />
  <circle
     cx="2.66667"
     cy="77.3333"
     r="2.66667"
     fill="#97A9BF"
     id="circle1170" />
  <circle
     cx="12"
     cy="77.3333"
     r="2.66667"
     fill="#97A9BF"
     id="circle1172" />
  <circle
     cx="21.3334"
     cy="77.3333"
     r="2.66667"
     fill="#97A9BF"
     id="circle1174" />
  <circle
     cx="30.6667"
     cy="77.3333"
     r="2.66667"
     fill="#97A9BF"
     id="circle1176" />
  <circle
     cx="40"
     cy="77.3333"
     r="2.66667"
     fill="#97A9BF"
     id="circle1178" />
  <circle
     cx="49.3334"
     cy="77.3333"
     r="2.66667"
     fill="#97A9BF"
     id="circle1180" />
  <circle
     cx="2.66667"
     cy="86.6666"
     r="2.66667"
     fill="#97A9BF"
     id="circle1182" />
  <circle
     cx="12"
     cy="86.6666"
     r="2.66667"
     fill="#97A9BF"
     id="circle1184" />
  <circle
     cx="21.3334"
     cy="86.6666"
     r="2.66667"
     fill="#97A9BF"
     id="circle1186" />
  <circle
     cx="30.6667"
     cy="86.6666"
     r="2.66667"
     fill="#97A9BF"
     id="circle1188" />
  <circle
     cx="40"
     cy="86.6666"
     r="2.66667"
     fill="#97A9BF"
     id="circle1190" />
  <circle
     cx="49.3334"
     cy="86.6666"
     r="2.66667"
     fill="#97A9BF"
     id="circle1192" />
  <circle
     cx="58.6667"
     cy="2.66667"
     r="2.66667"
     fill="#97A9BF"
     id="circle1194" />
  <circle
     cx="68"
     cy="2.66667"
     r="2.66667"
     fill="#97A9BF"
     id="circle1196" />
  <circle
     cx="77.3334"
     cy="2.66667"
     r="2.66667"
     fill="#97A9BF"
     id="circle1198" />
  <circle
     cx="86.6667"
     cy="2.66667"
     r="2.66667"
     fill="#97A9BF"
     id="circle1200" />
  <circle
     cx="96"
     cy="2.66667"
     r="2.66667"
     fill="#97A9BF"
     id="circle1202" />
  <circle
     cx="105.333"
     cy="2.66667"
     r="2.66667"
     fill="#97A9BF"
     id="circle1204" />
  <circle
     cx="58.6667"
     cy="12"
     r="2.66667"
     fill="#97A9BF"
     id="circle1206" />
  <circle
     cx="68"
     cy="12"
     r="2.66667"
     fill="#97A9BF"
     id="circle1208" />
  <circle
     cx="77.3334"
     cy="12"
     r="2.66667"
     fill="#97A9BF"
     id="circle1210" />
  <circle
     cx="86.6667"
     cy="12"
     r="2.66667"
     fill="#97A9BF"
     id="circle1212" />
  <circle
     cx="96"
     cy="12"
     r="2.66667"
     fill="#97A9BF"
     id="circle1214" />
  <circle
     cx="105.333"
     cy="12"
     r="2.66667"
     fill="#97A9BF"
     id="circle1216" />
  <circle
     cx="58.6667"
     cy="21.3333"
     r="2.66667"
     fill="#97A9BF"
     id="circle1218" />
  <circle
     cx="68"
     cy="21.3333"
     r="2.66667"
     fill="#97A9BF"
     id="circle1220" />
  <circle
     cx="77.3334"
     cy="21.3333"
     r="2.66667"
     fill="#97A9BF"
     id="circle1222" />
  <circle
     cx="86.6667"
     cy="21.3333"
     r="2.66667"
     fill="#97A9BF"
     id="circle1224" />
  <circle
     cx="96"
     cy="21.3333"
     r="2.66667"
     fill="#97A9BF"
     id="circle1226" />
  <circle
     cx="105.333"
     cy="21.3333"
     r="2.66667"
     fill="#97A9BF"
     id="circle1228" />
  <circle
     cx="58.6667"
     cy="30.6667"
     r="2.66667"
     fill="#97A9BF"
     id="circle1230" />
  <circle
     cx="68"
     cy="30.6667"
     r="2.66667"
     fill="#97A9BF"
     id="circle1232" />
  <circle
     cx="77.3334"
     cy="30.6667"
     r="2.66667"
     fill="#97A9BF"
     id="circle1234" />
  <circle
     cx="86.6667"
     cy="30.6667"
     r="2.66667"
     fill="#97A9BF"
     id="circle1236" />
  <circle
     cx="96"
     cy="30.6667"
     r="2.66667"
     fill="#97A9BF"
     id="circle1238" />
  <circle
     cx="105.333"
     cy="30.6667"
     r="2.66667"
     fill="#97A9BF"
     id="circle1240" />
  <circle
     cx="58.6667"
     cy="40"
     r="2.66667"
     fill="#97A9BF"
     id="circle1242" />
  <circle
     cx="68"
     cy="40"
     r="2.66667"
     fill="#97A9BF"
     id="circle1244" />
  <circle
     cx="77.3334"
     cy="40"
     r="2.66667"
     fill="#97A9BF"
     id="circle1246" />
  <circle
     cx="86.6667"
     cy="40"
     r="2.66667"
     fill="#97A9BF"
     id="circle1248" />
  <circle
     cx="96"
     cy="40"
     r="2.66667"
     fill="#97A9BF"
     id="circle1250" />
  <circle
     cx="105.333"
     cy="40"
     r="2.66667"
     fill="#97A9BF"
     id="circle1252" />
  <circle
     cx="58.6667"
     cy="49.3333"
     r="2.66667"
     fill="#97A9BF"
     id="circle1254" />
  <circle
     cx="68"
     cy="49.3333"
     r="2.66667"
     fill="#97A9BF"
     id="circle1256" />
  <circle
     cx="77.3334"
     cy="49.3333"
     r="2.66667"
     fill="#97A9BF"
     id="circle1258" />
  <circle
     cx="86.6667"
     cy="49.3333"
     r="2.66667"
     fill="#97A9BF"
     id="circle1260" />
  <circle
     cx="96"
     cy="49.3333"
     r="2.66667"
     fill="#97A9BF"
     id="circle1262" />
  <circle
     cx="105.333"
     cy="49.3333"
     r="2.66667"
     fill="#97A9BF"
     id="circle1264" />
  <circle
     cx="58.6667"
     cy="58.6666"
     r="2.66667"
     fill="#97A9BF"
     id="circle1266" />
  <circle
     cx="68"
     cy="58.6666"
     r="2.66667"
     fill="#97A9BF"
     id="circle1268" />
  <circle
     cx="77.3334"
     cy="58.6666"
     r="2.66667"
     fill="#97A9BF"
     id="circle1270" />
  <circle
     cx="86.6667"
     cy="58.6666"
     r="2.66667"
     fill="#97A9BF"
     id="circle1272" />
  <circle
     cx="96"
     cy="58.6666"
     r="2.66667"
     fill="#97A9BF"
     id="circle1274" />
  <circle
     cx="105.333"
     cy="58.6666"
     r="2.66667"
     fill="#97A9BF"
     id="circle1276" />
  <circle
     cx="58.6667"
     cy="67.9999"
     r="2.66667"
     fill="#97A9BF"
     id="circle1278" />
  <circle
     cx="68"
     cy="67.9999"
     r="2.66667"
     fill="#97A9BF"
     id="circle1280" />
  <circle
     cx="77.3334"
     cy="67.9999"
     r="2.66667"
     fill="#97A9BF"
     id="circle1282" />
  <circle
     cx="86.6667"
     cy="67.9999"
     r="2.66667"
     fill="#97A9BF"
     id="circle1284" />
  <circle
     cx="96"
     cy="67.9999"
     r="2.66667"
     fill="#97A9BF"
     id="circle1286" />
  <circle
     cx="105.333"
     cy="67.9999"
     r="2.66667"
     fill="#97A9BF"
     id="circle1288" />
  <circle
     cx="58.6667"
     cy="77.3333"
     r="2.66667"
     fill="#97A9BF"
     id="circle1290" />
  <circle
     cx="68"
     cy="77.3333"
     r="2.66667"
     fill="#97A9BF"
     id="circle1292" />
  <circle
     cx="77.3334"
     cy="77.3333"
     r="2.66667"
     fill="#97A9BF"
     id="circle1294" />
  <circle
     cx="86.6667"
     cy="77.3333"
     r="2.66667"
     fill="#97A9BF"
     id="circle1296" />
  <circle
     cx="96"
     cy="77.3333"
     r="2.66667"
     fill="#97A9BF"
     id="circle1298" />
  <circle
     cx="105.333"
     cy="77.3333"
     r="2.66667"
     fill="#97A9BF"
     id="circle1300" />
  <circle
     cx="58.6667"
     cy="86.6666"
     r="2.66667"
     fill="#97A9BF"
     id="circle1302" />
  <circle
     cx="68"
     cy="86.6666"
     r="2.66667"
     fill="#97A9BF"
     id="circle1304" />
  <circle
     cx="77.3334"
     cy="86.6666"
     r="2.66667"
     fill="#97A9BF"
     id="circle1306" />
  <circle
     cx="86.6667"
     cy="86.6666"
     r="2.66667"
     fill="#97A9BF"
     id="circle1308" />
  <circle
     cx="96"
     cy="86.6666"
     r="2.66667"
     fill="#97A9BF"
     id="circle1310" />
  <circle
     cx="105.333"
     cy="86.6666"
     r="2.66667"
     fill="#97A9BF"
     id="circle1312" />
</svg>
