<svg width="30" height="43" viewBox="0 0 30 43" fill="none" xmlns="http://www.w3.org/2000/svg">
<path d="M15 21.5C15 19.7761 15.6848 18.1228 16.9038 16.9038C18.1228 15.6848 19.7761 15 21.5 15C23.2239 15 24.8772 15.6848 26.0962 16.9038C27.3152 18.1228 28 19.7761 28 21.5C28 23.2239 27.3152 24.8772 26.0962 26.0962C24.8772 27.3152 23.2239 28 21.5 28C19.7761 28 18.1228 27.3152 16.9038 26.0962C15.6848 24.8772 15 23.2239 15 21.5V21.5Z" stroke="#333333" stroke-width="3.5"/>
<path d="M2 34.5C2 32.7761 2.68482 31.1228 3.90381 29.9038C5.12279 28.6848 6.77609 28 8.5 28H15V34.5C15 36.2239 14.3152 37.8772 13.0962 39.0962C11.8772 40.3152 10.2239 41 8.5 41C6.77609 41 5.12279 40.3152 3.90381 39.0962C2.68482 37.8772 2 36.2239 2 34.5Z" stroke="#333333" stroke-width="3.5"/>
<path d="M15 2V15H21.5C23.2239 15 24.8772 14.3152 26.0962 13.0962C27.3152 11.8772 28 10.2239 28 8.5C28 6.77609 27.3152 5.12279 26.0962 3.90381C24.8772 2.68482 23.2239 2 21.5 2L15 2Z" stroke="#333333" stroke-width="3.5"/>
<path d="M2 8.5C2 10.2239 2.68482 11.8772 3.90381 13.0962C5.12279 14.3152 6.77609 15 8.5 15H15V2H8.5C6.77609 2 5.12279 2.68482 3.90381 3.90381C2.68482 5.12279 2 6.77609 2 8.5Z" stroke="#333333" stroke-width="3.5"/>
<path d="M2 21.5C2 23.2239 2.68482 24.8772 3.90381 26.0962C5.12279 27.3152 6.77609 28 8.5 28H15V15H8.5C6.77609 15 5.12279 15.6848 3.90381 16.9038C2.68482 18.1228 2 19.7761 2 21.5Z" stroke="#333333" stroke-width="3.5"/>
</svg>
