<svg width="122" height="134" viewBox="0 0 122 134" fill="none" xmlns="http://www.w3.org/2000/svg">
<g clip-path="url(#clip0_330_1060)">
<path d="M68.3159 16H9.31592V0H60.2122C66.3763 0 68.3159 6.37486 68.3159 14.2358V16Z" fill="#EFEFF0"/>
<path d="M68.1668 11.0204H5.78955V0.49469H59.5992C66.1161 0.49469 68.1668 4.68849 68.1668 9.85979V11.0204Z" stroke="#333333" stroke-miterlimit="10"/>
<path d="M54.1939 7.39451V7.89451H54.6939H112C112.828 7.89451 113.5 8.56609 113.5 9.39451V102.5H2.00001C1.17158 102.5 0.500001 101.828 0.500001 101L0.5 5.37894V2C0.5 1.17157 1.17158 0.5 1.99999 0.5H43.6944C48.0841 0.5 50.6976 1.58639 52.2094 2.95414C53.7184 4.31931 54.1939 6.02247 54.1939 7.39451Z" fill="white" stroke="#333333"/>
<path d="M119 84H15C13.8954 84 13 84.8954 13 86V131C13 132.105 13.8954 133 15 133H119C120.105 133 121 132.105 121 131V86C121 84.8954 120.105 84 119 84Z" fill="#C7D3DF" stroke="#333333"/>
<path d="M13.0008 97L13.4593 98.1528C14.0827 99.7231 15.0212 101.012 16.1604 101.869L17 102.502L16.1604 103.131C15.0212 103.99 14.0827 105.277 13.4593 106.847L13.0008 108L12.5409 106.847C11.9173 105.277 10.9787 103.99 9.83963 103.131L9 102.502L9.83963 101.869C10.9787 101.012 11.9173 99.7231 12.5409 98.1528L13.0008 97Z" fill="white" stroke="#333333" stroke-miterlimit="10"/>
<path d="M98 49H15C13.8954 49 13 49.8954 13 51V66C13 67.1046 13.8954 68 15 68H98C99.1046 68 100 67.1046 100 66V51C100 49.8954 99.1046 49 98 49Z" fill="#EFEFF0"/>
<path d="M107 61H27C25.8954 61 25 61.8954 25 63V78C25 79.1046 25.8954 80 27 80H107C108.105 80 109 79.1046 109 78V63C109 61.8954 108.105 61 107 61Z" fill="#C7D3DF"/>
<path d="M32.9121 73.088C32.7361 73.088 32.6001 73.0373 32.5041 72.936C32.4081 72.8293 32.3601 72.68 32.3601 72.488C32.3601 72.312 32.4108 72.168 32.5121 72.056C32.6134 71.944 32.7468 71.888 32.9121 71.888C33.0881 71.888 33.2241 71.9413 33.3201 72.048C33.4161 72.1493 33.4641 72.296 33.4641 72.488C33.4641 72.664 33.4134 72.808 33.3121 72.92C33.2108 73.032 33.0774 73.088 32.9121 73.088ZM35.8124 73.08C35.4177 73.08 35.0657 73.016 34.7564 72.888C34.4524 72.7547 34.2071 72.5733 34.0204 72.344L34.7244 71.736C34.8897 71.912 35.0737 72.04 35.2764 72.12C35.4791 72.1947 35.6817 72.232 35.8844 72.232C35.9644 72.232 36.0364 72.224 36.1004 72.208C36.1697 72.1867 36.2284 72.16 36.2764 72.128C36.3244 72.0907 36.3591 72.048 36.3804 72C36.4071 71.9467 36.4204 71.8907 36.4204 71.832C36.4204 71.7147 36.3724 71.6213 36.2764 71.552C36.2231 71.5253 36.1404 71.4933 36.0284 71.456C35.9164 71.4133 35.7724 71.368 35.5964 71.32C35.3244 71.2507 35.0924 71.1707 34.9004 71.08C34.7137 70.984 34.5644 70.8773 34.4524 70.76C34.3564 70.648 34.2817 70.528 34.2284 70.4C34.1804 70.2667 34.1564 70.12 34.1564 69.96C34.1564 69.768 34.1991 69.5947 34.2844 69.44C34.3697 69.28 34.4871 69.144 34.6364 69.032C34.7911 68.92 34.9671 68.8347 35.1644 68.776C35.3617 68.712 35.5697 68.68 35.7884 68.68C36.0071 68.68 36.2204 68.7067 36.4284 68.76C36.6364 68.8133 36.8284 68.8907 37.0044 68.992C37.1857 69.088 37.3431 69.2027 37.4764 69.336L36.8684 70.008C36.7724 69.9173 36.6631 69.8347 36.5404 69.76C36.4231 69.6853 36.3004 69.6267 36.1724 69.584C36.0444 69.5413 35.9297 69.52 35.8284 69.52C35.7377 69.52 35.6551 69.528 35.5804 69.544C35.5111 69.56 35.4524 69.584 35.4044 69.616C35.3564 69.648 35.3191 69.6907 35.2924 69.744C35.2711 69.792 35.2604 69.8453 35.2604 69.904C35.2604 69.9627 35.2737 70.0187 35.3004 70.072C35.3324 70.1253 35.3751 70.1707 35.4284 70.208C35.4871 70.24 35.5724 70.2773 35.6844 70.32C35.8017 70.3627 35.9591 70.4107 36.1564 70.464C36.4124 70.5333 36.6284 70.6107 36.8044 70.696C36.9857 70.7813 37.1297 70.88 37.2364 70.992C37.3271 71.088 37.3937 71.1973 37.4364 71.32C37.4791 71.4427 37.5004 71.5787 37.5004 71.728C37.5004 71.9893 37.4257 72.224 37.2764 72.432C37.1324 72.6347 36.9324 72.7947 36.6764 72.912C36.4204 73.024 36.1324 73.08 35.8124 73.08ZM38.7183 73V67.696H39.8543V73H38.7183ZM37.9263 69.784V68.768H40.7183V69.784H37.9263ZM42.0507 74.84L42.9787 72.664L42.9947 73.32L40.9307 68.768H42.2187L43.2507 71.208C43.2934 71.2987 43.3334 71.4053 43.3707 71.528C43.4134 71.6453 43.4481 71.76 43.4747 71.872L43.2827 71.952C43.3147 71.8613 43.3521 71.7573 43.3947 71.64C43.4374 71.5227 43.4801 71.3973 43.5227 71.264L44.4107 68.768H45.7067L43.9307 73L43.2027 74.84H42.0507ZM46.3261 73V67.08H47.4621V73H46.3261ZM50.5449 73.08C50.0862 73.08 49.6862 72.9867 49.3449 72.8C49.0035 72.6133 48.7369 72.3573 48.5449 72.032C48.3529 71.7067 48.2569 71.3333 48.2569 70.912C48.2569 70.5867 48.3102 70.288 48.4169 70.016C48.5235 69.744 48.6729 69.5093 48.8649 69.312C49.0569 69.1093 49.2835 68.9547 49.5449 68.848C49.8115 68.736 50.0995 68.68 50.4089 68.68C50.6969 68.68 50.9635 68.7333 51.2089 68.84C51.4542 68.9413 51.6649 69.088 51.8409 69.28C52.0222 69.4667 52.1609 69.688 52.2569 69.944C52.3529 70.2 52.3955 70.48 52.3849 70.784L52.3768 71.136H48.9769L48.7929 70.44H51.4409L51.3129 70.584V70.408C51.3022 70.264 51.2542 70.1333 51.1689 70.016C51.0889 69.8987 50.9849 69.808 50.8569 69.744C50.7289 69.68 50.5849 69.648 50.4249 69.648C50.1902 69.648 49.9902 69.6933 49.8249 69.784C49.6649 69.8747 49.5422 70.008 49.4569 70.184C49.3715 70.36 49.3289 70.5733 49.3289 70.824C49.3289 71.08 49.3822 71.3013 49.4889 71.488C49.6009 71.6747 49.7555 71.8213 49.9529 71.928C50.1555 72.0293 50.3929 72.08 50.6649 72.08C50.8515 72.08 51.0222 72.0507 51.1769 71.992C51.3315 71.9333 51.4969 71.832 51.6729 71.688L52.2169 72.448C52.0622 72.5867 51.8915 72.704 51.7049 72.8C51.5182 72.8907 51.3262 72.96 51.1289 73.008C50.9315 73.056 50.7369 73.08 50.5449 73.08ZM55.6084 74.6C55.347 74.5467 55.123 74.4773 54.9364 74.392C54.7497 74.312 54.595 74.2107 54.4724 74.088C54.355 73.9653 54.267 73.8187 54.2084 73.648C54.155 73.4773 54.1284 73.28 54.1284 73.056L54.1364 72.296C54.1364 71.9867 54.067 71.7467 53.9284 71.576C53.795 71.4 53.603 71.3093 53.3524 71.304H53.0084V70.696H53.3684C53.619 70.6907 53.8084 70.6027 53.9364 70.432C54.0697 70.2613 54.1364 70.0187 54.1364 69.704L54.1284 68.944C54.1284 68.5067 54.243 68.168 54.4724 67.928C54.7017 67.688 55.0804 67.512 55.6084 67.4L55.7524 67.952C55.523 68.0267 55.3417 68.1067 55.2084 68.192C55.0804 68.2773 54.9897 68.3893 54.9364 68.528C54.883 68.6613 54.8564 68.8373 54.8564 69.056L54.8724 69.816C54.8724 70.1253 54.8004 70.3813 54.6563 70.584C54.5177 70.7867 54.315 70.928 54.0484 71.008L54.0404 70.984C54.3124 71.0747 54.5177 71.2213 54.6563 71.424C54.8004 71.6267 54.8724 71.88 54.8724 72.184L54.8564 72.944C54.8564 73.1627 54.883 73.3387 54.9364 73.472C54.9897 73.6053 55.0804 73.7147 55.2084 73.8C55.3417 73.8853 55.523 73.968 55.7524 74.048L55.6084 74.6ZM60.5476 73.08C60.1583 73.08 59.8089 72.984 59.4996 72.792C59.1956 72.6 58.9529 72.3387 58.7716 72.008C58.5956 71.6773 58.5076 71.3067 58.5076 70.896C58.5076 70.4853 58.5956 70.1147 58.7716 69.784C58.9529 69.4533 59.1956 69.192 59.4996 69C59.8089 68.808 60.1583 68.712 60.5476 68.712C60.9209 68.712 61.2596 68.7893 61.5636 68.944C61.8729 69.0933 62.1076 69.2987 62.2676 69.56L61.8116 70.12C61.7263 69.9973 61.6169 69.8853 61.4836 69.784C61.3503 69.6827 61.2089 69.6027 61.0596 69.544C60.9103 69.4853 60.7663 69.456 60.6276 69.456C60.3716 69.456 60.1423 69.52 59.9396 69.648C59.7423 69.7707 59.5849 69.9413 59.4676 70.16C59.3503 70.3787 59.2916 70.624 59.2916 70.896C59.2916 71.168 59.3529 71.4133 59.4756 71.632C59.5983 71.8453 59.7609 72.016 59.9636 72.144C60.1663 72.272 60.3903 72.336 60.6356 72.336C60.7796 72.336 60.9183 72.312 61.0516 72.264C61.1903 72.216 61.3236 72.144 61.4516 72.048C61.5796 71.952 61.6996 71.8347 61.8116 71.696L62.2676 72.256C62.0969 72.496 61.8516 72.6933 61.5316 72.848C61.2169 73.0027 60.8889 73.08 60.5476 73.08ZM64.9329 73.08C64.5222 73.08 64.1542 72.9867 63.8289 72.8C63.5089 72.608 63.2555 72.3493 63.0689 72.024C62.8822 71.6933 62.7889 71.3173 62.7889 70.896C62.7889 70.4747 62.8822 70.1013 63.0689 69.776C63.2555 69.4453 63.5089 69.1867 63.8289 69C64.1542 68.808 64.5222 68.712 64.9329 68.712C65.3382 68.712 65.7009 68.808 66.0209 69C66.3462 69.1867 66.6022 69.4453 66.7889 69.776C66.9755 70.1013 67.0689 70.4747 67.0689 70.896C67.0689 71.3173 66.9755 71.6933 66.7889 72.024C66.6022 72.3493 66.3462 72.608 66.0209 72.8C65.7009 72.9867 65.3382 73.08 64.9329 73.08ZM64.9329 72.328C65.1835 72.328 65.4075 72.2667 65.6049 72.144C65.8022 72.016 65.9569 71.8453 66.0689 71.632C66.1809 71.4133 66.2342 71.168 66.2289 70.896C66.2342 70.6187 66.1809 70.3733 66.0689 70.16C65.9569 69.9413 65.8022 69.7707 65.6049 69.648C65.4075 69.5253 65.1835 69.464 64.9329 69.464C64.6822 69.464 64.4555 69.528 64.2529 69.656C64.0555 69.7787 63.9009 69.9493 63.7889 70.168C63.6769 70.3813 63.6235 70.624 63.6289 70.896C63.6235 71.168 63.6769 71.4133 63.7889 71.632C63.9009 71.8453 64.0555 72.016 64.2529 72.144C64.4555 72.2667 64.6822 72.328 64.9329 72.328ZM67.9827 73V67.08H68.8067V73H67.9827ZM71.7844 73.08C71.3737 73.08 71.0057 72.9867 70.6804 72.8C70.3604 72.608 70.1071 72.3493 69.9204 72.024C69.7337 71.6933 69.6404 71.3173 69.6404 70.896C69.6404 70.4747 69.7337 70.1013 69.9204 69.776C70.1071 69.4453 70.3604 69.1867 70.6804 69C71.0057 68.808 71.3737 68.712 71.7844 68.712C72.1897 68.712 72.5524 68.808 72.8724 69C73.1977 69.1867 73.4537 69.4453 73.6404 69.776C73.8271 70.1013 73.9204 70.4747 73.9204 70.896C73.9204 71.3173 73.8271 71.6933 73.6404 72.024C73.4537 72.3493 73.1977 72.608 72.8724 72.8C72.5524 72.9867 72.1897 73.08 71.7844 73.08ZM71.7844 72.328C72.0351 72.328 72.2591 72.2667 72.4564 72.144C72.6537 72.016 72.8084 71.8453 72.9204 71.632C73.0324 71.4133 73.0857 71.168 73.0804 70.896C73.0857 70.6187 73.0324 70.3733 72.9204 70.16C72.8084 69.9413 72.6537 69.7707 72.4564 69.648C72.2591 69.5253 72.0351 69.464 71.7844 69.464C71.5337 69.464 71.3071 69.528 71.1044 69.656C70.9071 69.7787 70.7524 69.9493 70.6404 70.168C70.5284 70.3813 70.4751 70.624 70.4804 70.896C70.4751 71.168 70.5284 71.4133 70.6404 71.632C70.7524 71.8453 70.9071 72.016 71.1044 72.144C71.3071 72.2667 71.5337 72.328 71.7844 72.328ZM74.8183 73V68.8H75.6503V70.12L75.5703 69.8C75.629 69.5973 75.7276 69.4133 75.8663 69.248C76.0103 69.0827 76.173 68.952 76.3543 68.856C76.541 68.76 76.733 68.712 76.9303 68.712C77.021 68.712 77.1063 68.72 77.1863 68.736C77.2716 68.752 77.3383 68.7707 77.3863 68.792L77.1703 69.688C77.1063 69.6613 77.0343 69.64 76.9543 69.624C76.8796 69.6027 76.805 69.592 76.7303 69.592C76.5863 69.592 76.4476 69.6213 76.3143 69.68C76.1863 69.7333 76.0716 69.8107 75.9703 69.912C75.8743 70.008 75.797 70.1227 75.7383 70.256C75.6796 70.384 75.6503 70.5253 75.6503 70.68V73H74.8183ZM78.3809 73.08C78.2049 73.08 78.0689 73.0293 77.9729 72.928C77.8769 72.8213 77.8289 72.672 77.8289 72.48C77.8289 72.304 77.8795 72.16 77.9809 72.048C78.0822 71.936 78.2155 71.88 78.3809 71.88C78.5569 71.88 78.6929 71.9333 78.7889 72.04C78.8849 72.1413 78.9329 72.288 78.9329 72.48C78.9329 72.656 78.8822 72.8 78.7809 72.912C78.6795 73.024 78.5462 73.08 78.3809 73.08ZM78.3809 69.92C78.2049 69.92 78.0689 69.8693 77.9729 69.768C77.8769 69.6613 77.8289 69.512 77.8289 69.32C77.8289 69.144 77.8795 69 77.9809 68.888C78.0822 68.776 78.2155 68.72 78.3809 68.72C78.5569 68.72 78.6929 68.7733 78.7889 68.88C78.8849 68.9813 78.9329 69.128 78.9329 69.32C78.9329 69.496 78.8822 69.64 78.7809 69.752C78.6795 69.864 78.5462 69.92 78.3809 69.92ZM84.4674 73L85.4274 67.4H86.1474L85.1874 73H84.4674ZM81.7794 71.616V70.952H86.4114V71.616H81.7794ZM82.3394 73L83.2994 67.4H84.0194L83.0594 73H82.3394ZM82.0834 69.376V68.712H86.7074V69.376H82.0834ZM87.9852 73V68.328C87.9852 68.088 88.0386 67.8747 88.1452 67.688C88.2519 67.5013 88.3986 67.3547 88.5852 67.248C88.7719 67.1413 88.9879 67.088 89.2332 67.088C89.4039 67.088 89.5639 67.12 89.7132 67.184C89.8626 67.248 89.9826 67.3333 90.0732 67.44L89.7932 68.072C89.7239 68.008 89.6466 67.9573 89.5612 67.92C89.4812 67.8773 89.4039 67.856 89.3292 67.856C89.2172 67.856 89.1212 67.8747 89.0412 67.912C88.9666 67.944 88.9106 67.9973 88.8732 68.072C88.8359 68.1413 88.8172 68.2267 88.8172 68.328V73H88.4012C88.3319 73 88.2626 73 88.1932 73C88.1239 73 88.0546 73 87.9852 73ZM87.3132 69.632V68.872H89.8092V69.632H87.3132ZM91.1292 73V68.328C91.1292 68.088 91.1826 67.8747 91.2892 67.688C91.3959 67.5013 91.5426 67.3547 91.7292 67.248C91.9159 67.1413 92.1319 67.088 92.3772 67.088C92.5479 67.088 92.7079 67.12 92.8572 67.184C93.0066 67.248 93.1266 67.3333 93.2172 67.44L92.9372 68.072C92.8679 68.008 92.7906 67.9573 92.7052 67.92C92.6252 67.8773 92.5479 67.856 92.4732 67.856C92.3612 67.856 92.2652 67.8747 92.1852 67.912C92.1106 67.944 92.0546 67.9973 92.0172 68.072C91.9799 68.1413 91.9612 68.2267 91.9612 68.328V73H91.5452C91.4759 73 91.4066 73 91.3372 73C91.2679 73 91.1986 73 91.1292 73ZM90.4572 69.632V68.872H92.9532V69.632H90.4572ZM94.2743 73V68.328C94.2743 68.088 94.3276 67.8747 94.4343 67.688C94.541 67.5013 94.6876 67.3547 94.8743 67.248C95.061 67.1413 95.277 67.088 95.5223 67.088C95.693 67.088 95.853 67.12 96.0023 67.184C96.1516 67.248 96.2716 67.3333 96.3623 67.44L96.0823 68.072C96.013 68.008 95.9356 67.9573 95.8503 67.92C95.7703 67.8773 95.693 67.856 95.6183 67.856C95.5063 67.856 95.4103 67.8747 95.3303 67.912C95.2556 67.944 95.1996 67.9973 95.1623 68.072C95.125 68.1413 95.1063 68.2267 95.1063 68.328V73H94.6903C94.621 73 94.5516 73 94.4823 73C94.413 73 94.3436 73 94.2743 73ZM93.6023 69.632V68.872H96.0983V69.632H93.6023ZM97.0469 74.432L96.7429 74.064C96.9296 73.9573 97.0816 73.8347 97.1989 73.696C97.3162 73.5573 97.3749 73.4373 97.3749 73.336C97.3749 73.2827 97.3616 73.2293 97.3349 73.176C97.3082 73.128 97.2522 73.0587 97.1669 72.968C97.0602 72.8667 96.9909 72.7813 96.9589 72.712C96.9269 72.6427 96.9109 72.568 96.9109 72.488C96.9109 72.36 96.9562 72.2587 97.0469 72.184C97.1376 72.104 97.2549 72.064 97.3989 72.064C97.5322 72.064 97.6522 72.104 97.7589 72.184C97.8709 72.2587 97.9562 72.3653 98.0149 72.504C98.0789 72.6373 98.1109 72.792 98.1109 72.968C98.1109 73.128 98.0842 73.2827 98.0309 73.432C97.9776 73.5813 97.9029 73.72 97.8069 73.848C97.7109 73.976 97.5989 74.0907 97.4709 74.192C97.3429 74.2933 97.2016 74.3733 97.0469 74.432ZM97.4389 69.92C97.2629 69.92 97.1269 69.8693 97.0309 69.768C96.9349 69.6613 96.8869 69.512 96.8869 69.32C96.8869 69.144 96.9376 69 97.0389 68.888C97.1402 68.776 97.2736 68.72 97.4389 68.72C97.6149 68.72 97.7509 68.7733 97.8469 68.88C97.9429 68.9813 97.9909 69.128 97.9909 69.32C97.9909 69.496 97.9402 69.64 97.8389 69.752C97.7376 69.864 97.6042 69.92 97.4389 69.92ZM101.055 74.6L100.911 74.048C101.14 73.9733 101.319 73.8933 101.447 73.808C101.575 73.7227 101.665 73.6107 101.719 73.472C101.777 73.3387 101.807 73.1627 101.807 72.944L101.791 72.184C101.791 71.8747 101.86 71.6187 101.999 71.416C102.143 71.2133 102.348 71.072 102.615 70.992L102.623 71.016C102.351 70.9253 102.143 70.7787 101.999 70.576C101.86 70.3733 101.791 70.12 101.791 69.816L101.807 69.056C101.807 68.8373 101.78 68.6613 101.727 68.528C101.673 68.3947 101.583 68.2853 101.455 68.2C101.327 68.1093 101.145 68.0267 100.911 67.952L101.055 67.4C101.316 67.4533 101.54 67.5227 101.727 67.608C101.913 67.688 102.065 67.7893 102.183 67.912C102.305 68.0347 102.393 68.1813 102.447 68.352C102.505 68.5227 102.535 68.72 102.535 68.944L102.527 69.704C102.527 70.0133 102.593 70.256 102.727 70.432C102.865 70.6027 103.06 70.6907 103.311 70.696H103.655V71.304H103.295C103.044 71.3093 102.852 71.3973 102.719 71.568C102.591 71.7387 102.527 71.9813 102.527 72.296L102.535 73.056C102.535 73.4933 102.42 73.832 102.191 74.072C101.961 74.312 101.583 74.488 101.055 74.6Z" fill="#333333"/>
<path d="M27.11 98.96L23.5 96.89V96.08L27.11 94.01L27.59 94.76L24 96.82V96.15L27.59 98.21L27.11 98.96ZM30.7341 99.1C30.2408 99.1 29.8008 99.02 29.4141 98.86C29.0341 98.6933 28.7275 98.4667 28.4941 98.18L29.3741 97.42C29.5808 97.64 29.8108 97.8 30.0641 97.9C30.3175 97.9933 30.5708 98.04 30.8241 98.04C30.9241 98.04 31.0141 98.03 31.0941 98.01C31.1808 97.9833 31.2541 97.95 31.3141 97.91C31.3741 97.8633 31.4175 97.81 31.4441 97.75C31.4775 97.6833 31.4941 97.6133 31.4941 97.54C31.4941 97.3933 31.4341 97.2767 31.3141 97.19C31.2475 97.1567 31.1441 97.1167 31.0041 97.07C30.8641 97.0167 30.6841 96.96 30.4641 96.9C30.1241 96.8133 29.8341 96.7133 29.5941 96.6C29.3608 96.48 29.1741 96.3467 29.0341 96.2C28.9141 96.06 28.8208 95.91 28.7541 95.75C28.6941 95.5833 28.6641 95.4 28.6641 95.2C28.6641 94.96 28.7175 94.7433 28.8241 94.55C28.9308 94.35 29.0775 94.18 29.2641 94.04C29.4575 93.9 29.6775 93.7933 29.9241 93.72C30.1708 93.64 30.4308 93.6 30.7041 93.6C30.9775 93.6 31.2441 93.6333 31.5041 93.7C31.7641 93.7667 32.0041 93.8633 32.2241 93.99C32.4508 94.11 32.6475 94.2533 32.8141 94.42L32.0541 95.26C31.9341 95.1467 31.7975 95.0433 31.6441 94.95C31.4975 94.8567 31.3441 94.7833 31.1841 94.73C31.0241 94.6767 30.8808 94.65 30.7541 94.65C30.6408 94.65 30.5375 94.66 30.4441 94.68C30.3575 94.7 30.2841 94.73 30.2241 94.77C30.1641 94.81 30.1175 94.8633 30.0841 94.93C30.0575 94.99 30.0441 95.0567 30.0441 95.13C30.0441 95.2033 30.0608 95.2733 30.0941 95.34C30.1341 95.4067 30.1875 95.4633 30.2541 95.51C30.3275 95.55 30.4341 95.5967 30.5741 95.65C30.7208 95.7033 30.9175 95.7633 31.1641 95.83C31.4841 95.9167 31.7541 96.0133 31.9741 96.12C32.2008 96.2267 32.3808 96.35 32.5141 96.49C32.6275 96.61 32.7108 96.7467 32.7641 96.9C32.8175 97.0533 32.8441 97.2233 32.8441 97.41C32.8441 97.7367 32.7508 98.03 32.5641 98.29C32.3841 98.5433 32.1341 98.7433 31.8141 98.89C31.4941 99.03 31.1341 99.1 30.7341 99.1ZM36.1565 99.1C35.6498 99.1 35.1965 98.98 34.7965 98.74C34.3965 98.5 34.0798 98.1733 33.8465 97.76C33.6198 97.3467 33.5065 96.8767 33.5065 96.35C33.5065 95.83 33.6198 95.3633 33.8465 94.95C34.0798 94.53 34.3965 94.2 34.7965 93.96C35.1965 93.72 35.6498 93.6 36.1565 93.6C36.6298 93.6 37.0632 93.6867 37.4565 93.86C37.8498 94.0333 38.1565 94.2733 38.3765 94.58L37.5965 95.52C37.5032 95.3933 37.3865 95.28 37.2465 95.18C37.1065 95.0733 36.9532 94.99 36.7865 94.93C36.6265 94.87 36.4598 94.84 36.2865 94.84C36.0132 94.84 35.7698 94.9067 35.5565 95.04C35.3498 95.1667 35.1865 95.3433 35.0665 95.57C34.9465 95.7967 34.8865 96.0567 34.8865 96.35C34.8865 96.6367 34.9465 96.8933 35.0665 97.12C35.1932 97.34 35.3632 97.52 35.5765 97.66C35.7898 97.7933 36.0298 97.86 36.2965 97.86C36.4698 97.86 36.6332 97.8367 36.7865 97.79C36.9398 97.7367 37.0832 97.66 37.2165 97.56C37.3565 97.46 37.4832 97.34 37.5965 97.2L38.3665 98.14C38.1398 98.4267 37.8265 98.66 37.4265 98.84C37.0265 99.0133 36.6032 99.1 36.1565 99.1ZM39.2764 99V93.71H40.6464L40.6964 95.41L40.4564 95.06C40.5364 94.7867 40.6664 94.54 40.8464 94.32C41.0264 94.0933 41.2364 93.9167 41.4764 93.79C41.7231 93.6633 41.9797 93.6 42.2464 93.6C42.3597 93.6 42.4697 93.61 42.5764 93.63C42.6831 93.65 42.7731 93.6733 42.8464 93.7L42.4664 95.26C42.3864 95.22 42.2897 95.1867 42.1764 95.16C42.0631 95.1267 41.9464 95.11 41.8264 95.11C41.6664 95.11 41.5164 95.14 41.3764 95.2C41.2431 95.2533 41.1264 95.3333 41.0264 95.44C40.9264 95.54 40.8464 95.66 40.7864 95.8C40.7331 95.94 40.7064 96.0933 40.7064 96.26V99H39.2764ZM43.7812 99V93.71H45.2012V99H43.7812ZM44.4812 92.62C44.2078 92.62 43.9945 92.5533 43.8412 92.42C43.6878 92.2867 43.6112 92.0967 43.6112 91.85C43.6112 91.6233 43.6878 91.44 43.8412 91.3C44.0012 91.1533 44.2145 91.08 44.4812 91.08C44.7545 91.08 44.9678 91.15 45.1212 91.29C45.2745 91.4233 45.3512 91.61 45.3512 91.85C45.3512 92.0833 45.2712 92.27 45.1112 92.41C44.9578 92.55 44.7478 92.62 44.4812 92.62ZM46.7178 101.2V93.71H48.0878L48.1278 94.9L47.8678 94.81C47.9145 94.5967 48.0278 94.4 48.2078 94.22C48.3945 94.04 48.6245 93.8933 48.8978 93.78C49.1711 93.6667 49.4578 93.61 49.7578 93.61C50.2178 93.61 50.6245 93.73 50.9778 93.97C51.3378 94.2033 51.6211 94.5267 51.8278 94.94C52.0411 95.3467 52.1478 95.8167 52.1478 96.35C52.1478 96.8767 52.0445 97.3467 51.8378 97.76C51.6311 98.1733 51.3478 98.5 50.9878 98.74C50.6278 98.9733 50.2178 99.09 49.7578 99.09C49.4511 99.09 49.1578 99.0333 48.8778 98.92C48.6045 98.8 48.3711 98.6433 48.1778 98.45C47.9845 98.2567 47.8645 98.05 47.8178 97.83L48.1478 97.69V101.2H46.7178ZM49.4378 97.87C49.6978 97.87 49.9278 97.8067 50.1278 97.68C50.3278 97.5533 50.4845 97.3767 50.5978 97.15C50.7111 96.9167 50.7678 96.65 50.7678 96.35C50.7678 96.05 50.7111 95.7867 50.5978 95.56C50.4845 95.3333 50.3278 95.1567 50.1278 95.03C49.9345 94.9033 49.7045 94.84 49.4378 94.84C49.1711 94.84 48.9378 94.9033 48.7378 95.03C48.5378 95.15 48.3811 95.3267 48.2678 95.56C48.1545 95.7867 48.0978 96.05 48.0978 96.35C48.0978 96.65 48.1545 96.9167 48.2678 97.15C48.3811 97.3767 48.5378 97.5533 48.7378 97.68C48.9378 97.8067 49.1711 97.87 49.4378 97.87ZM53.7317 99V92.37H55.1517V99H53.7317ZM52.7417 94.98V93.71H56.2317V94.98H52.7417ZM57.5773 98.96L57.0973 98.21L60.6873 96.15V96.82L57.0973 94.76L57.5773 94.01L61.1873 96.08V96.89L57.5773 98.96ZM71.9538 124.96L68.3438 122.89V122.08L71.9538 120.01L72.4338 120.76L68.8438 122.82V122.15L72.4338 124.21L71.9538 124.96ZM73.2679 126.32L77.3879 118H78.3779L74.2679 126.32H73.2679ZM81.1443 125.1C80.651 125.1 80.211 125.02 79.8243 124.86C79.4443 124.693 79.1376 124.467 78.9043 124.18L79.7843 123.42C79.991 123.64 80.221 123.8 80.4743 123.9C80.7276 123.993 80.981 124.04 81.2343 124.04C81.3343 124.04 81.4243 124.03 81.5043 124.01C81.591 123.983 81.6643 123.95 81.7243 123.91C81.7843 123.863 81.8276 123.81 81.8543 123.75C81.8876 123.683 81.9043 123.613 81.9043 123.54C81.9043 123.393 81.8443 123.277 81.7243 123.19C81.6576 123.157 81.5543 123.117 81.4143 123.07C81.2743 123.017 81.0943 122.96 80.8743 122.9C80.5343 122.813 80.2443 122.713 80.0043 122.6C79.771 122.48 79.5843 122.347 79.4443 122.2C79.3243 122.06 79.231 121.91 79.1643 121.75C79.1043 121.583 79.0743 121.4 79.0743 121.2C79.0743 120.96 79.1276 120.743 79.2343 120.55C79.341 120.35 79.4876 120.18 79.6743 120.04C79.8676 119.9 80.0876 119.793 80.3343 119.72C80.581 119.64 80.841 119.6 81.1143 119.6C81.3876 119.6 81.6543 119.633 81.9143 119.7C82.1743 119.767 82.4143 119.863 82.6343 119.99C82.861 120.11 83.0576 120.253 83.2243 120.42L82.4643 121.26C82.3443 121.147 82.2076 121.043 82.0543 120.95C81.9076 120.857 81.7543 120.783 81.5943 120.73C81.4343 120.677 81.291 120.65 81.1643 120.65C81.051 120.65 80.9476 120.66 80.8543 120.68C80.7676 120.7 80.6943 120.73 80.6343 120.77C80.5743 120.81 80.5276 120.863 80.4943 120.93C80.4676 120.99 80.4543 121.057 80.4543 121.13C80.4543 121.203 80.471 121.273 80.5043 121.34C80.5443 121.407 80.5976 121.463 80.6643 121.51C80.7376 121.55 80.8443 121.597 80.9843 121.65C81.131 121.703 81.3276 121.763 81.5743 121.83C81.8943 121.917 82.1643 122.013 82.3843 122.12C82.611 122.227 82.791 122.35 82.9243 122.49C83.0376 122.61 83.121 122.747 83.1743 122.9C83.2276 123.053 83.2543 123.223 83.2543 123.41C83.2543 123.737 83.161 124.03 82.9743 124.29C82.7943 124.543 82.5443 124.743 82.2243 124.89C81.9043 125.03 81.5443 125.1 81.1443 125.1ZM86.5666 125.1C86.06 125.1 85.6066 124.98 85.2066 124.74C84.8066 124.5 84.49 124.173 84.2566 123.76C84.03 123.347 83.9166 122.877 83.9166 122.35C83.9166 121.83 84.03 121.363 84.2566 120.95C84.49 120.53 84.8066 120.2 85.2066 119.96C85.6066 119.72 86.06 119.6 86.5666 119.6C87.04 119.6 87.4733 119.687 87.8666 119.86C88.26 120.033 88.5666 120.273 88.7866 120.58L88.0066 121.52C87.9133 121.393 87.7966 121.28 87.6566 121.18C87.5166 121.073 87.3633 120.99 87.1966 120.93C87.0366 120.87 86.87 120.84 86.6966 120.84C86.4233 120.84 86.18 120.907 85.9666 121.04C85.76 121.167 85.5966 121.343 85.4766 121.57C85.3566 121.797 85.2966 122.057 85.2966 122.35C85.2966 122.637 85.3566 122.893 85.4766 123.12C85.6033 123.34 85.7733 123.52 85.9866 123.66C86.2 123.793 86.44 123.86 86.7066 123.86C86.88 123.86 87.0433 123.837 87.1966 123.79C87.35 123.737 87.4933 123.66 87.6266 123.56C87.7666 123.46 87.8933 123.34 88.0066 123.2L88.7766 124.14C88.55 124.427 88.2366 124.66 87.8366 124.84C87.4366 125.013 87.0133 125.1 86.5666 125.1ZM89.6866 125V119.71H91.0566L91.1066 121.41L90.8666 121.06C90.9466 120.787 91.0766 120.54 91.2566 120.32C91.4366 120.093 91.6466 119.917 91.8866 119.79C92.1332 119.663 92.3899 119.6 92.6566 119.6C92.7699 119.6 92.8799 119.61 92.9866 119.63C93.0932 119.65 93.1832 119.673 93.2566 119.7L92.8766 121.26C92.7966 121.22 92.6999 121.187 92.5866 121.16C92.4732 121.127 92.3566 121.11 92.2366 121.11C92.0766 121.11 91.9266 121.14 91.7866 121.2C91.6532 121.253 91.5366 121.333 91.4366 121.44C91.3366 121.54 91.2566 121.66 91.1966 121.8C91.1432 121.94 91.1166 122.093 91.1166 122.26V125H89.6866ZM94.1913 125V119.71H95.6113V125H94.1913ZM94.8913 118.62C94.618 118.62 94.4047 118.553 94.2513 118.42C94.098 118.287 94.0213 118.097 94.0213 117.85C94.0213 117.623 94.098 117.44 94.2513 117.3C94.4113 117.153 94.6247 117.08 94.8913 117.08C95.1647 117.08 95.378 117.15 95.5313 117.29C95.6847 117.423 95.7613 117.61 95.7613 117.85C95.7613 118.083 95.6813 118.27 95.5213 118.41C95.368 118.55 95.158 118.62 94.8913 118.62ZM97.128 127.2V119.71H98.498L98.538 120.9L98.278 120.81C98.3246 120.597 98.438 120.4 98.618 120.22C98.8046 120.04 99.0346 119.893 99.308 119.78C99.5813 119.667 99.868 119.61 100.168 119.61C100.628 119.61 101.035 119.73 101.388 119.97C101.748 120.203 102.031 120.527 102.238 120.94C102.451 121.347 102.558 121.817 102.558 122.35C102.558 122.877 102.455 123.347 102.248 123.76C102.041 124.173 101.758 124.5 101.398 124.74C101.038 124.973 100.628 125.09 100.168 125.09C99.8613 125.09 99.568 125.033 99.288 124.92C99.0146 124.8 98.7813 124.643 98.588 124.45C98.3946 124.257 98.2746 124.05 98.228 123.83L98.558 123.69V127.2H97.128ZM99.848 123.87C100.108 123.87 100.338 123.807 100.538 123.68C100.738 123.553 100.895 123.377 101.008 123.15C101.121 122.917 101.178 122.65 101.178 122.35C101.178 122.05 101.121 121.787 101.008 121.56C100.895 121.333 100.738 121.157 100.538 121.03C100.345 120.903 100.115 120.84 99.848 120.84C99.5813 120.84 99.348 120.903 99.148 121.03C98.948 121.15 98.7913 121.327 98.678 121.56C98.5646 121.787 98.508 122.05 98.508 122.35C98.508 122.65 98.5646 122.917 98.678 123.15C98.7913 123.377 98.948 123.553 99.148 123.68C99.348 123.807 99.5813 123.87 99.848 123.87ZM104.142 125V118.37H105.562V125H104.142ZM103.152 120.98V119.71H106.642V120.98H103.152ZM107.987 124.96L107.507 124.21L111.097 122.15V122.82L107.507 120.76L107.987 120.01L111.597 122.08V122.89L107.987 124.96Z" fill="#333333"/>
<path d="M48 23H14C13.4477 23 13 23.4477 13 24V43C13 43.5523 13.4477 44 14 44H48C48.5523 44 49 43.5523 49 43V24C49 23.4477 48.5523 23 48 23Z" fill="#97A9BF"/>
<path d="M43 14.5H10C9.72386 14.5 9.5 14.7239 9.5 15V37C9.5 37.2761 9.72386 37.5 10 37.5H43C43.2761 37.5 43.5 37.2761 43.5 37V15C43.5 14.7239 43.2761 14.5 43 14.5Z" fill="#EFEFF0" stroke="#333333"/>
<path d="M56 26H98" stroke="#333333" stroke-linecap="round"/>
<path d="M56 34H98" stroke="#333333" stroke-linecap="round"/>
<path d="M56 42H90" stroke="#333333" stroke-linecap="round"/>
<path d="M18.11 28.96L14.5 26.89V26.08L18.11 24.01L18.59 24.76L15 26.82V26.15L18.59 28.21L18.11 28.96ZM22.0241 29.1C21.5641 29.1 21.1508 28.9833 20.7841 28.75C20.4175 28.51 20.1275 28.1867 19.9141 27.78C19.7075 27.3667 19.6041 26.89 19.6041 26.35C19.6041 25.8233 19.7075 25.3533 19.9141 24.94C20.1275 24.5267 20.4141 24.2 20.7741 23.96C21.1408 23.72 21.5575 23.6 22.0241 23.6C22.2708 23.6 22.5075 23.64 22.7341 23.72C22.9675 23.7933 23.1741 23.8967 23.3541 24.03C23.5408 24.1633 23.6908 24.3133 23.8041 24.48C23.9175 24.64 23.9808 24.81 23.9941 24.99L23.6341 25.05V21.6H25.0541V29H23.7141L23.6541 27.78L23.9341 27.81C23.9208 27.9767 23.8608 28.1367 23.7541 28.29C23.6475 28.4433 23.5041 28.5833 23.3241 28.71C23.1508 28.83 22.9508 28.9267 22.7241 29C22.5041 29.0667 22.2708 29.1 22.0241 29.1ZM22.3441 27.92C22.6108 27.92 22.8441 27.8533 23.0441 27.72C23.2441 27.5867 23.4008 27.4033 23.5141 27.17C23.6275 26.9367 23.6841 26.6633 23.6841 26.35C23.6841 26.0433 23.6275 25.7733 23.5141 25.54C23.4008 25.3 23.2441 25.1167 23.0441 24.99C22.8441 24.8567 22.6108 24.79 22.3441 24.79C22.0775 24.79 21.8441 24.8567 21.6441 24.99C21.4508 25.1167 21.2975 25.3 21.1841 25.54C21.0775 25.7733 21.0241 26.0433 21.0241 26.35C21.0241 26.6633 21.0775 26.9367 21.1841 27.17C21.2975 27.4033 21.4508 27.5867 21.6441 27.72C21.8441 27.8533 22.0775 27.92 22.3441 27.92ZM26.5585 29V23.71H27.9785V29H26.5585ZM27.2585 22.62C26.9852 22.62 26.7718 22.5533 26.6185 22.42C26.4652 22.2867 26.3885 22.0967 26.3885 21.85C26.3885 21.6233 26.4652 21.44 26.6185 21.3C26.7785 21.1533 26.9918 21.08 27.2585 21.08C27.5318 21.08 27.7452 21.15 27.8985 21.29C28.0518 21.4233 28.1285 21.61 28.1285 21.85C28.1285 22.0833 28.0485 22.27 27.8885 22.41C27.7352 22.55 27.5252 22.62 27.2585 22.62ZM31.1552 29L28.9352 23.71H30.4952L31.9052 27.66L31.5752 27.72L33.0552 23.71H34.5752L32.2452 29H31.1552ZM35.8624 28.96L35.3824 28.21L38.9724 26.15V26.82L35.3824 24.76L35.8624 24.01L39.4724 26.08V26.89L35.8624 28.96Z" fill="#333333"/>
<path d="M84 95H68V99H84V95Z" fill="#97A9BF"/>
<path d="M70 107H23V111H70V107Z" fill="#97A9BF"/>
<path d="M43 120H23V124H43V120Z" fill="#97A9BF"/>
<path d="M64 120H49V124H64V120Z" fill="#97A9BF"/>
<path d="M111 95H88V99H111V95Z" fill="#97A9BF"/>
<path d="M111 107H76V111H111V107Z" fill="#97A9BF"/>
<path d="M44.5001 57L48.3972 63.75H40.603L44.5001 57Z" fill="#C7D3DF"/>
<path d="M9.50004 75L9.90235 76.0482C10.4461 77.4736 11.2679 78.6458 12.2652 79.4262L13 80L12.2652 80.5737C11.2679 81.3542 10.4461 82.5264 9.90235 83.9517L9.50004 85L9.09765 83.9517C8.55239 82.5264 7.73213 81.3542 6.73477 80.5737L6 80L6.73477 79.4262C7.73213 78.6458 8.55239 77.4736 9.09765 76.0482L9.50004 75Z" fill="#97A9BF"/>
<path d="M118 14H74C72.8954 14 72 14.8954 72 16V27C72 28.1046 72.8954 29 74 29H118C119.105 29 120 28.1046 120 27V16C120 14.8954 119.105 14 118 14Z" fill="#C7D3DF"/>
<path d="M82.5001 33L78.603 26.25H86.3972L82.5001 33Z" fill="#C7D3DF"/>
<path d="M75.684 23.066C75.552 23.066 75.45 23.028 75.378 22.952C75.306 22.872 75.27 22.76 75.27 22.616C75.27 22.484 75.308 22.376 75.384 22.292C75.46 22.208 75.56 22.166 75.684 22.166C75.816 22.166 75.918 22.206 75.99 22.286C76.062 22.362 76.098 22.472 76.098 22.616C76.098 22.748 76.06 22.856 75.984 22.94C75.908 23.024 75.808 23.066 75.684 23.066ZM77.1872 23V19.046H77.8052V23H77.1872ZM76.5332 20.45V19.85H78.5372V20.45H76.5332ZM80.5407 23.06C80.2167 23.06 79.9287 22.992 79.6767 22.856C79.4287 22.716 79.2327 22.526 79.0887 22.286C78.9487 22.046 78.8787 21.77 78.8787 21.458C78.8787 21.21 78.9187 20.984 78.9987 20.78C79.0787 20.576 79.1887 20.4 79.3287 20.252C79.4727 20.1 79.6427 19.984 79.8387 19.904C80.0387 19.82 80.2547 19.778 80.4867 19.778C80.6907 19.778 80.8807 19.818 81.0567 19.898C81.2327 19.974 81.3847 20.08 81.5127 20.216C81.6447 20.352 81.7447 20.514 81.8127 20.702C81.8847 20.886 81.9187 21.088 81.9147 21.308L81.9087 21.572H79.3347L79.1967 21.08H81.3747L81.2847 21.182V21.038C81.2727 20.906 81.2287 20.788 81.1527 20.684C81.0767 20.58 80.9807 20.498 80.8647 20.438C80.7487 20.378 80.6227 20.348 80.4867 20.348C80.2707 20.348 80.0887 20.39 79.9407 20.474C79.7927 20.554 79.6807 20.674 79.6047 20.834C79.5287 20.99 79.4907 21.184 79.4907 21.416C79.4907 21.636 79.5367 21.828 79.6287 21.992C79.7207 22.152 79.8507 22.276 80.0187 22.364C80.1867 22.452 80.3807 22.496 80.6007 22.496C80.7567 22.496 80.9007 22.47 81.0327 22.418C81.1687 22.366 81.3147 22.272 81.4707 22.136L81.7827 22.574C81.6867 22.67 81.5687 22.754 81.4287 22.826C81.2927 22.898 81.1467 22.956 80.9907 23C80.8387 23.04 80.6887 23.06 80.5407 23.06ZM84.6627 23L83.6427 21.674L83.5527 21.56L82.2267 19.85H83.0067L84.0087 21.158L84.1107 21.29L85.4187 23H84.6627ZM82.2327 23L83.4747 21.38L83.8407 21.818L82.9647 23H82.2327ZM84.1467 21.476L83.8047 21.044L84.5787 19.85H85.3107L84.1467 21.476ZM86.3279 23V19.046H86.9459V23H86.3279ZM85.6739 20.45V19.85H87.6779V20.45H85.6739ZM90.0226 24.2C89.8266 24.16 89.6586 24.108 89.5186 24.044C89.3786 23.984 89.2626 23.908 89.1706 23.816C89.0826 23.724 89.0166 23.614 88.9726 23.486C88.9326 23.358 88.9126 23.21 88.9126 23.042L88.9186 22.472C88.9186 22.24 88.8666 22.06 88.7626 21.932C88.6626 21.8 88.5186 21.732 88.3306 21.728H88.0726V21.272H88.3426C88.5306 21.268 88.6726 21.202 88.7686 21.074C88.8686 20.946 88.9186 20.764 88.9186 20.528L88.9126 19.958C88.9126 19.63 88.9986 19.376 89.1706 19.196C89.3426 19.016 89.6266 18.884 90.0226 18.8L90.1306 19.214C89.9586 19.27 89.8226 19.33 89.7226 19.394C89.6266 19.458 89.5586 19.542 89.5186 19.646C89.4786 19.746 89.4586 19.878 89.4586 20.042L89.4706 20.612C89.4706 20.844 89.4166 21.036 89.3086 21.188C89.2046 21.34 89.0526 21.446 88.8526 21.506L88.8466 21.488C89.0506 21.556 89.2046 21.666 89.3086 21.818C89.4166 21.97 89.4706 22.16 89.4706 22.388L89.4586 22.958C89.4586 23.122 89.4786 23.254 89.5186 23.354C89.5586 23.454 89.6266 23.536 89.7226 23.6C89.8226 23.664 89.9586 23.726 90.1306 23.786L90.0226 24.2ZM92.731 23V19.496C92.731 19.316 92.771 19.156 92.851 19.016C92.931 18.876 93.041 18.766 93.181 18.686C93.321 18.606 93.483 18.566 93.667 18.566C93.795 18.566 93.915 18.59 94.027 18.638C94.139 18.686 94.229 18.75 94.297 18.83L94.087 19.304C94.035 19.256 93.977 19.218 93.913 19.19C93.853 19.158 93.795 19.142 93.739 19.142C93.655 19.142 93.583 19.156 93.523 19.184C93.467 19.208 93.425 19.248 93.397 19.304C93.369 19.356 93.355 19.42 93.355 19.496V23H93.043C92.991 23 92.939 23 92.887 23C92.835 23 92.783 23 92.731 23ZM92.227 20.474V19.904H94.099V20.474H92.227ZM96.0433 23.06C95.7353 23.06 95.4593 22.99 95.2153 22.85C94.9753 22.706 94.7853 22.512 94.6453 22.268C94.5053 22.02 94.4353 21.738 94.4353 21.422C94.4353 21.106 94.5053 20.826 94.6453 20.582C94.7853 20.334 94.9753 20.14 95.2153 20C95.4593 19.856 95.7353 19.784 96.0433 19.784C96.3473 19.784 96.6193 19.856 96.8593 20C97.1033 20.14 97.2953 20.334 97.4353 20.582C97.5753 20.826 97.6453 21.106 97.6453 21.422C97.6453 21.738 97.5753 22.02 97.4353 22.268C97.2953 22.512 97.1033 22.706 96.8593 22.85C96.6193 22.99 96.3473 23.06 96.0433 23.06ZM96.0433 22.496C96.2313 22.496 96.3993 22.45 96.5473 22.358C96.6953 22.262 96.8113 22.134 96.8953 21.974C96.9793 21.81 97.0193 21.626 97.0153 21.422C97.0193 21.214 96.9793 21.03 96.8953 20.87C96.8113 20.706 96.6953 20.578 96.5473 20.486C96.3993 20.394 96.2313 20.348 96.0433 20.348C95.8553 20.348 95.6853 20.396 95.5333 20.492C95.3853 20.584 95.2693 20.712 95.1853 20.876C95.1013 21.036 95.0613 21.218 95.0653 21.422C95.0613 21.626 95.1013 21.81 95.1853 21.974C95.2693 22.134 95.3853 22.262 95.5333 22.358C95.6853 22.45 95.8553 22.496 96.0433 22.496ZM98.3187 23V19.85H98.9367V20.498L98.8287 20.57C98.8687 20.43 98.9467 20.302 99.0627 20.186C99.1787 20.066 99.3167 19.97 99.4767 19.898C99.6367 19.822 99.8007 19.784 99.9687 19.784C100.209 19.784 100.409 19.832 100.569 19.928C100.729 20.02 100.849 20.162 100.929 20.354C101.009 20.546 101.049 20.788 101.049 21.08V23H100.431V21.122C100.431 20.942 100.407 20.794 100.359 20.678C100.311 20.558 100.237 20.472 100.137 20.42C100.037 20.364 99.9127 20.34 99.7647 20.348C99.6447 20.348 99.5347 20.368 99.4347 20.408C99.3347 20.444 99.2467 20.496 99.1707 20.564C99.0987 20.632 99.0407 20.712 98.9967 20.804C98.9567 20.892 98.9367 20.988 98.9367 21.092V23H98.6307C98.5787 23 98.5267 23 98.4747 23C98.4227 23 98.3707 23 98.3187 23ZM102.277 23V19.046H102.895V23H102.277ZM101.623 20.45V19.85H103.627V20.45H101.623ZM104.076 21.59V20.978H105.804V21.59H104.076ZM107.601 23.06C107.337 23.06 107.099 23.014 106.887 22.922C106.675 22.83 106.499 22.694 106.359 22.514L106.779 22.154C106.899 22.294 107.029 22.396 107.169 22.46C107.313 22.52 107.475 22.55 107.655 22.55C107.727 22.55 107.793 22.542 107.853 22.526C107.917 22.506 107.971 22.478 108.015 22.442C108.063 22.406 108.099 22.364 108.123 22.316C108.147 22.264 108.159 22.208 108.159 22.148C108.159 22.044 108.121 21.96 108.045 21.896C108.005 21.868 107.941 21.838 107.853 21.806C107.769 21.77 107.659 21.734 107.523 21.698C107.291 21.638 107.101 21.57 106.953 21.494C106.805 21.418 106.691 21.332 106.611 21.236C106.551 21.16 106.507 21.078 106.479 20.99C106.451 20.898 106.437 20.798 106.437 20.69C106.437 20.558 106.465 20.438 106.521 20.33C106.581 20.218 106.661 20.122 106.761 20.042C106.865 19.958 106.985 19.894 107.121 19.85C107.261 19.806 107.409 19.784 107.565 19.784C107.713 19.784 107.859 19.804 108.003 19.844C108.151 19.884 108.287 19.942 108.411 20.018C108.535 20.094 108.639 20.184 108.723 20.288L108.369 20.678C108.293 20.602 108.209 20.536 108.117 20.48C108.029 20.42 107.939 20.374 107.847 20.342C107.755 20.31 107.671 20.294 107.595 20.294C107.511 20.294 107.435 20.302 107.367 20.318C107.299 20.334 107.241 20.358 107.193 20.39C107.149 20.422 107.115 20.462 107.091 20.51C107.067 20.558 107.055 20.612 107.055 20.672C107.059 20.724 107.071 20.774 107.091 20.822C107.115 20.866 107.147 20.904 107.187 20.936C107.231 20.968 107.297 21.002 107.385 21.038C107.473 21.074 107.585 21.108 107.721 21.14C107.921 21.192 108.085 21.25 108.213 21.314C108.345 21.374 108.449 21.444 108.525 21.524C108.605 21.6 108.661 21.688 108.693 21.788C108.725 21.888 108.741 22 108.741 22.124C108.741 22.304 108.689 22.466 108.585 22.61C108.485 22.75 108.349 22.86 108.177 22.94C108.005 23.02 107.813 23.06 107.601 23.06ZM109.524 23V19.85H110.142V23H109.524ZM109.824 19.154C109.692 19.154 109.59 19.12 109.518 19.052C109.446 18.984 109.41 18.888 109.41 18.764C109.41 18.648 109.446 18.554 109.518 18.482C109.594 18.41 109.696 18.374 109.824 18.374C109.956 18.374 110.058 18.408 110.13 18.476C110.202 18.544 110.238 18.64 110.238 18.764C110.238 18.88 110.2 18.974 110.124 19.046C110.052 19.118 109.952 19.154 109.824 19.154ZM110.96 23V22.484L112.586 20.312V20.384H110.96V19.85H113.258V20.354L111.656 22.496L111.632 22.466H113.294V23H110.96ZM115.41 23.06C115.086 23.06 114.798 22.992 114.546 22.856C114.298 22.716 114.102 22.526 113.958 22.286C113.818 22.046 113.748 21.77 113.748 21.458C113.748 21.21 113.788 20.984 113.868 20.78C113.948 20.576 114.058 20.4 114.198 20.252C114.342 20.1 114.512 19.984 114.708 19.904C114.908 19.82 115.124 19.778 115.356 19.778C115.56 19.778 115.75 19.818 115.926 19.898C116.102 19.974 116.254 20.08 116.382 20.216C116.514 20.352 116.614 20.514 116.682 20.702C116.754 20.886 116.788 21.088 116.784 21.308L116.778 21.572H114.204L114.066 21.08H116.244L116.154 21.182V21.038C116.142 20.906 116.098 20.788 116.022 20.684C115.946 20.58 115.85 20.498 115.734 20.438C115.618 20.378 115.492 20.348 115.356 20.348C115.14 20.348 114.958 20.39 114.81 20.474C114.662 20.554 114.55 20.674 114.474 20.834C114.398 20.99 114.36 21.184 114.36 21.416C114.36 21.636 114.406 21.828 114.498 21.992C114.59 22.152 114.72 22.276 114.888 22.364C115.056 22.452 115.25 22.496 115.47 22.496C115.626 22.496 115.77 22.47 115.902 22.418C116.038 22.366 116.184 22.272 116.34 22.136L116.652 22.574C116.556 22.67 116.438 22.754 116.298 22.826C116.162 22.898 116.016 22.956 115.86 23C115.708 23.04 115.558 23.06 115.41 23.06Z" fill="#333333"/>
</g>
<defs>
<clipPath id="clip0_330_1060">
<rect width="122" height="134" fill="white"/>
</clipPath>
</defs>
</svg>
