<svg width="203" height="202" viewBox="0 0 203 202" fill="none" xmlns="http://www.w3.org/2000/svg">
<path d="M158.489 144.81L114.978 106.068L158.489 67.3298L202 106.068L158.489 144.81Z" fill="#97A9BF"/>
<path d="M158.489 129.612L114.978 90.8735L158.489 52.1316L202 90.8735L158.489 129.612Z" fill="#C7D3DF" stroke="black" stroke-miterlimit="10"/>
<path d="M54.9802 154.804C49.7917 166.323 36.4486 171.497 36.4486 171.497C36.4486 171.497 31.5226 158 36.7111 146.484C41.9055 134.965 50.2001 127.492 55.2486 129.79C60.2912 132.086 60.1717 143.285 54.9802 154.804Z" fill="#EFEFF0"/>
<path d="M54.9802 154.804C49.7917 166.323 36.4486 171.497 36.4486 171.497C36.4486 171.497 31.5226 158 36.7111 146.484C41.9055 134.965 50.2001 127.492 55.2486 129.79C60.2912 132.086 60.1717 143.285 54.9802 154.804Z" fill="white" stroke="#333333" stroke-width="1.33333" stroke-miterlimit="10" stroke-linecap="round" stroke-linejoin="round"/>
<path d="M58.5119 144.608C58.5119 144.608 57.322 142.207 50.9552 139.307C44.5942 136.408 42.0102 137.094 42.0102 137.094L104.622 5.77173C106.413 2.01615 110.175 0.0870539 113.106 1.42393C116.04 2.76081 117.079 6.87407 115.448 10.7059L58.5119 144.608Z" fill="#333333"/>
<path d="M58.5119 144.608C58.5119 144.608 57.322 142.207 50.9552 139.307C44.5942 136.408 42.0102 137.094 42.0102 137.094L104.622 5.77173C106.413 2.01615 110.175 0.0870539 113.106 1.42393C116.04 2.76081 117.079 6.87407 115.448 10.7059L58.5119 144.608Z" stroke="#333333" stroke-width="1.33333" stroke-miterlimit="10" stroke-linecap="round" stroke-linejoin="round"/>
<path d="M37.3727 171.498H114.22C130.854 171.498 130.817 187.517 114.22 187.517H63.001C50.5282 187.517 51.6069 201 62.3559 201H102.997" stroke="#333333" stroke-width="1.33333" stroke-miterlimit="10" stroke-linecap="round"/>
<path d="M36.6095 170.818L41.2302 160.466Z" fill="#333333"/>
<path d="M36.6095 170.818L41.2302 160.466" stroke="#333333" stroke-width="1.33333" stroke-miterlimit="10" stroke-linecap="round" stroke-linejoin="round"/>
<path d="M108.799 200.999H117.053" stroke="#333333" stroke-width="1.33333" stroke-miterlimit="10" stroke-linecap="round"/>
<path d="M27.9425 86.7537L28.9108 89.1431C30.2262 92.3915 32.2065 95.0623 34.6155 96.8389L36.3859 98.1465L34.6155 99.4541C32.2065 101.228 30.2262 103.899 28.9108 107.147L27.9425 109.536L26.9742 107.147C25.6589 103.899 23.6786 101.228 21.2695 99.4541L19.4992 98.1465L21.2695 96.8389C23.6786 95.0623 25.6589 92.3915 26.9742 89.1431L27.9425 86.7537Z" fill="#EFEFF0"/>
<path d="M10.4433 102.146L11.4116 104.535C12.727 107.784 14.7073 110.454 17.1164 112.231L18.8867 113.539L17.1164 114.846C14.7073 116.62 12.727 119.291 11.4116 122.539L10.4433 124.928L9.47506 122.539C8.1597 119.291 6.17938 116.62 3.77033 114.846L2 113.539L3.77033 112.231C6.17938 110.454 8.1597 107.784 9.47506 104.535L10.4433 102.146Z" stroke="#333333" stroke-width="1.33333" stroke-miterlimit="10"/>
<path d="M170.644 160.799L171.295 162.405C172.179 164.589 173.51 166.384 175.129 167.578L176.319 168.457L175.129 169.336C173.51 170.528 172.179 172.323 171.295 174.507L170.644 176.113L169.993 174.507C169.109 172.323 167.778 170.528 166.158 169.336L164.968 168.457L166.158 167.578C167.778 166.384 169.109 164.589 169.993 162.405L170.644 160.799Z" fill="white" stroke="#333333" stroke-width="1.33333" stroke-miterlimit="10"/>
</svg>
