<?xml version="1.0" encoding="UTF-8" standalone="no"?>
<svg
   width="111"
   height="92"
   viewBox="0 0 111 92"
   fill="none"
   version="1.1"
   id="svg27966"
   sodipodi:docname="graphic.svg"
   inkscape:version="1.1.1 (3bf5ae0d25, 2021-09-20)"
   xmlns:inkscape="http://www.inkscape.org/namespaces/inkscape"
   xmlns:sodipodi="http://sodipodi.sourceforge.net/DTD/sodipodi-0.dtd"
   xmlns="http://www.w3.org/2000/svg"
   xmlns:svg="http://www.w3.org/2000/svg">
  <defs
     id="defs27970" />
  <sodipodi:namedview
     id="namedview27968"
     pagecolor="#ffffff"
     bordercolor="#666666"
     borderopacity="1.0"
     inkscape:pageshadow="2"
     inkscape:pageopacity="0.0"
     inkscape:pagecheckerboard="0"
     showgrid="false"
     inkscape:zoom="8.7391304"
     inkscape:cx="60.074627"
     inkscape:cy="45.542289"
     inkscape:current-layer="svg27966" />
  <path
     d="M84 84.736L61 64.3633L84 43.9924L107 64.3633L84 84.736Z"
     fill="#97A9BF"
     id="path27940" />
  <path
     d="M84 76.7436L61 56.3727L84 36L107 56.3727L84 76.7436Z"
     fill="#C7D3DF"
     stroke="black"
     stroke-miterlimit="10"
     id="path27942" />
  <path
     d="m 25.356478,70.059292 c -2.337291,5.162043 -8.348031,7.480908 -8.348031,7.480908 0,0 -2.219046,-6.048775 0.118244,-11.209537 2.339952,-5.161944 6.076464,-8.510911 8.350691,-7.480907 2.271567,1.028723 2.217766,6.047592 -0.120904,11.209536 z"
     fill="#efeff0"
     id="path27944"
     style="stroke-width:1" />
  <path
     d="m 25.356478,70.059292 c -2.337291,5.162043 -8.348031,7.480908 -8.348031,7.480908 0,0 -2.219046,-6.048775 0.118244,-11.209537 2.339952,-5.161944 6.076464,-8.510911 8.350691,-7.480907 2.271567,1.028723 2.217766,6.047592 -0.120904,11.209536 z"
     fill="#ffffff"
     stroke="#333333"
     stroke-width="1.33333"
     stroke-miterlimit="10"
     stroke-linecap="round"
     stroke-linejoin="round"
     id="path27946" />
  <path
     d="m 26.947452,65.490342 c 0,0 -0.53604,-1.076021 -3.404148,-2.375424 -2.865448,-1.299404 -4.029462,-0.99197 -4.029462,-0.99197 L 47.718991,3.2729011 c 0.806621,-1.6830051 2.501453,-2.54750317 3.821845,-1.9483999 1.321771,0.5991032 1.789427,2.442394 1.055033,4.1595638 z"
     fill="#333333"
     id="path27948"
     style="stroke-width:1" />
  <path
     d="m 26.947452,65.490342 c 0,0 -0.53604,-1.076021 -3.404148,-2.375424 -2.865448,-1.299404 -4.029462,-0.99197 -4.029462,-0.99197 L 47.718991,3.2729011 c 0.806621,-1.6830051 2.501453,-2.54750317 3.821845,-1.9483999 1.321771,0.5991032 1.789427,2.442394 1.055033,4.1595638 z"
     stroke="#333333"
     stroke-width="1.33333"
     stroke-miterlimit="10"
     stroke-linecap="round"
     stroke-linejoin="round"
     id="path27950" />
  <path
     d="M17.1711 77.5406H52.3031C59.9075 77.5406 59.8904 84.8259 52.3031 84.8259H28.8875C23.1854 84.8259 23.6785 90.9579 28.5926 90.9579H47.1721"
     stroke="#333333"
     stroke-width="1.33333"
     stroke-miterlimit="10"
     stroke-linecap="round"
     id="path27952" />
  <path
     d="M 17.08097,77.235918 19.162066,72.59681 Z"
     fill="#333333"
     id="path27954"
     style="stroke-width:1" />
  <path
     d="M 17.08097,77.235918 19.162066,72.59681"
     stroke="#333333"
     stroke-width="1.33333"
     stroke-miterlimit="10"
     stroke-linecap="round"
     stroke-linejoin="round"
     id="path27956" />
  <path
     d="m 49.825,90.9573 h 3.7733"
     stroke="#333333"
     stroke-width="1.33333"
     stroke-miterlimit="10"
     stroke-linecap="round"
     id="path27958" />
  <path
     d="m 12.86,39 0.4427,1.0867 c 0.6013,1.4773 1.5066,2.692 2.608,3.5 l 0.8093,0.5946 -0.8093,0.5947 c -1.1014,0.8067 -2.0067,2.0213 -2.608,3.4987 L 12.86,49.3613 12.4173,48.2747 C 11.816,46.7973 10.9107,45.5827 9.80933,44.776 L 9,44.1813 9.80933,43.5867 c 1.10137,-0.808 2.00667,-2.0227 2.60797,-3.5 z"
     fill="#efeff0"
     id="path27960" />
  <path
     d="m 4.86,46 0.44267,1.0867 c 0.60133,1.4773 1.50666,2.692 2.608,3.5 L 8.72,51.1813 7.91067,51.776 C 6.80933,52.5827 5.904,53.7973 5.30267,55.2747 L 4.86,56.3613 4.41733,55.2747 C 3.816,53.7973 2.91067,52.5827 1.80933,51.776 L 1,51.1813 1.80933,50.5867 c 1.10134,-0.808 2.00667,-2.0227 2.608,-3.5 z"
     stroke="#333333"
     stroke-width="1.33333"
     stroke-miterlimit="10"
     id="path27962" />
  <path
     d="M107 82L107.344 82.8446C107.811 83.9928 108.515 84.9368 109.371 85.5648L110 86.0269L109.371 86.4891C108.515 87.1161 107.811 88.0601 107.344 89.2083L107 90.0529L106.656 89.2083C106.189 88.0601 105.485 87.1161 104.629 86.4891L104 86.0269L104.629 85.5648C105.485 84.9368 106.189 83.9928 106.656 82.8446L107 82Z"
     fill="white"
     stroke="#333333"
     stroke-width="1.33333"
     stroke-miterlimit="10"
     id="path27964" />
</svg>
