<svg width="28" height="30" viewBox="0 0 28 30" fill="none" xmlns="http://www.w3.org/2000/svg">
<path d="M6.56615 18.5099H5.6617L5.92935 17.6459L7.32304 13.1472L7.32303 13.1472L7.32405 13.144C8.31146 10.0127 9.19013 7.07338 10.0666 3.79561L10.1988 3.30116H10.7107H10.857H11.3614L11.4985 3.78664C12.4172 7.03957 13.2588 10.0144 14.2799 13.1373L14.28 13.1372L14.2831 13.1472L15.6768 17.6459L15.9444 18.5099H15.04H6.56615ZM15.8119 19.6328H16.3049L16.4493 20.1042L18.9806 28.3646H20.7952L12.0279 2.02613H9.65206L0.923263 28.3646H2.55457L5.16034 20.099L5.30732 19.6328H5.79616H15.8119Z" fill="#231916" stroke="#333333" stroke-width="1.33333"/>
<path d="M25.8138 28.3642V9.2849H24.175V28.3642H25.8138ZM25.0117 0.666697C24.54 0.666697 24.1942 0.821144 23.9686 1.04461C23.7438 1.26738 23.5879 1.60875 23.5879 2.07903C23.5879 2.59595 23.7503 2.95628 23.9748 3.18459C24.1987 3.41235 24.5409 3.56644 25.0117 3.56644C25.439 3.56644 25.7758 3.41807 26.0054 3.18459C26.2344 2.95169 26.401 2.58861 26.401 2.07903C26.401 1.61621 26.2412 1.27214 26.0115 1.0446C25.7803 0.815544 25.4401 0.666697 25.0117 0.666697Z" fill="#231916" stroke="#333333" stroke-width="1.33333"/>
</svg>
