<svg width="20" height="21" viewBox="0 0 20 21" fill="none" xmlns="http://www.w3.org/2000/svg">
<g clip-path="url(#clip0_0_3)">
<path d="M3.44879 3.68174C4.09727 4.21237 4.34053 4.17188 5.5582 4.09006L17.0381 3.39576C17.2815 3.39576 17.079 3.1511 16.9979 3.11044L15.0912 1.72217C14.726 1.43651 14.2392 1.10934 13.3065 1.19118L2.19055 2.00781C1.78517 2.0483 1.70419 2.25246 1.86565 2.41612L3.44879 3.68174ZM4.13802 6.37647V18.5428C4.13802 19.1966 4.46242 19.4413 5.19256 19.4008L17.8089 18.6655C18.5393 18.6251 18.6207 18.1752 18.6207 17.6442V5.5595C18.6207 5.02919 18.4183 4.74321 17.971 4.78402L4.78684 5.5595C4.3003 5.60067 4.13802 5.84581 4.13802 6.37647ZM16.5928 7.02911C16.6738 7.39693 16.5928 7.76441 16.227 7.80575L15.6191 7.92773V16.9096C15.0912 17.1954 14.6046 17.3587 14.1991 17.3587C13.5497 17.3587 13.3871 17.1545 12.9008 16.5424L8.92454 10.255V16.3383L10.1827 16.6242C10.1827 16.6242 10.1827 17.3587 9.16764 17.3587L6.36915 17.5222C6.28785 17.3587 6.36915 16.9509 6.653 16.869L7.38328 16.6653V8.62205L6.36932 8.54022C6.288 8.17239 6.49053 7.64209 7.05887 7.60091L10.061 7.39709L14.1991 13.7663V8.13188L13.144 8.00991C13.063 7.56026 13.3871 7.23375 13.7928 7.19326L16.5928 7.02911ZM1.25723 0.905518L12.8196 0.047891C14.2395 -0.0747721 14.6048 0.00739381 15.4973 0.660363L19.188 3.27326C19.7971 3.72258 20 3.84491 20 4.33472V18.6655C20 19.5636 19.6752 20.0948 18.5395 20.176L5.11224 20.9928C4.25973 21.0337 3.854 20.9113 3.40756 20.3393L0.689557 16.7874C0.202528 16.1336 0 15.6443 0 15.0721V2.33397C0 1.5995 0.324903 0.986858 1.25723 0.905518Z" fill="#333333"/>
</g>
<defs>
<clipPath id="clip0_0_3">
<rect width="20" height="21" fill="white"/>
</clipPath>
</defs>
</svg>
