<svg width="32" height="29" viewBox="0 0 32 29" fill="none" xmlns="http://www.w3.org/2000/svg">
<path d="M3.2129 2.94542V2.27875H3.87957H7.77012C10.2105 2.27875 12.2037 2.60018 13.5938 3.55545C15.0449 4.55264 15.7096 6.14226 15.7096 8.32681C15.7096 10.4776 15.0914 12.1502 13.704 13.258C12.3499 14.3392 10.3838 14.7811 7.91372 14.7811H3.87957H3.2129V14.1145V2.94542ZM3.2129 16.6389V15.9722H3.87957H8.34643C11.1732 15.9722 13.415 15.3234 14.9384 14.0813C16.4398 12.857 17.3315 10.9844 17.3315 8.32681C17.3315 5.57631 16.4324 3.83381 14.9364 2.74776C13.398 1.63096 11.118 1.12546 8.20093 1.12546H1.55888V26.9542H3.2129V16.6389Z" fill="#231916" stroke="#333333" stroke-width="1.33333"/>
<path d="M25.158 26.3948C22.7696 26.3948 21.0155 25.5085 19.4167 24.2758L18.7238 25.234C20.4216 26.5129 22.6882 27.4366 25.0484 27.4366C27.1676 27.4366 28.7351 26.8102 29.7647 25.8757C30.7923 24.9432 31.3334 23.6611 31.3334 22.2419C31.3334 20.5585 30.6538 19.4993 29.6453 18.7006C28.65 17.9123 27.3508 17.3879 25.986 16.8371C25.9063 16.8049 25.8264 16.7727 25.7463 16.7403C24.6532 16.3413 23.5076 15.9158 22.6422 15.311C21.7385 14.6795 21.0694 13.8011 21.0694 12.5184C21.0694 11.5358 21.4315 10.587 22.2097 9.8901C22.9834 9.19732 24.1024 8.81146 25.517 8.81146C27.24 8.81146 28.6078 9.4786 29.8357 10.3293L30.5008 9.42062C29.1649 8.45597 27.4217 7.72997 25.517 7.72997C23.5421 7.72997 22.0543 8.31183 21.069 9.19378C20.0872 10.0726 19.5571 11.2896 19.5571 12.6677C19.5571 14.1401 20.1855 15.1487 21.1525 15.9362C22.1517 16.7498 23.4954 17.3117 24.8846 17.8325C25.9731 18.236 27.189 18.7077 28.131 19.3789C29.0937 20.0649 29.8551 21.0229 29.8551 22.3912C29.8551 23.4837 29.4582 24.5068 28.6307 25.2506C27.8084 25.9898 26.6269 26.3948 25.158 26.3948Z" fill="#231916" stroke="#333333" stroke-width="1.33333"/>
</svg>
