<svg width="36" height="29" viewBox="0 0 36 29" fill="none" xmlns="http://www.w3.org/2000/svg">
<path d="M7.72459 14.5797C13.0344 14.5797 15.5702 12.7176 15.5702 8.40042C15.5702 4.04084 12.877 2.65691 7.56723 2.65691H3.28835V14.5797H7.72459ZM0 1.90735e-06H8.04132C14.5777 1.90735e-06 18.8182 2.1808 18.8182 8.40042C18.8182 14.4223 14.5777 17.2749 8.2007 17.2749H3.28835V29H0V1.90735e-06Z" fill="#333333"/>
<path d="M24.5159 7.60758H27.1324L27.4471 11.5294H27.5682C29.0328 8.83618 31.2116 7.05482 33.6304 7.05482C34.5403 7.05482 35.1737 7.17183 35.8879 7.52891L35.2524 10.3411C34.5403 10.1031 34.0642 9.98609 33.231 9.98609C31.4093 9.98609 29.1902 11.3317 27.7255 15.0558V29H24.5159V7.60758Z" fill="#333333"/>
</svg>
