<svg width="200" height="200" viewBox="0 0 200 200" fill="none" xmlns="http://www.w3.org/2000/svg">
<path d="M-3.8147e-06 117C-3.8147e-06 115.895 0.895427 115 2 115H198C199.105 115 200 115.895 200 117V198C200 199.105 199.105 200 198 200H1.99999C0.895425 200 -3.8147e-06 199.105 -3.8147e-06 198V117Z" fill="#C7D3DF"/>
<path d="M122.482 159.436C122.482 171.828 112.39 181.87 99.9361 181.87C87.4822 181.87 77.3869 171.828 77.3869 159.436C77.3869 147.045 87.4822 137 99.9361 137C112.39 137 122.482 147.045 122.482 159.436Z" fill="white" stroke="#333333" stroke-miterlimit="10"/>
<path d="M107.472 159.031L95.9769 150.843C95.6459 150.608 95.1868 150.844 95.1868 151.251V167.62C95.1868 168.027 95.6458 168.263 95.9768 168.028L107.472 159.845C107.752 159.646 107.752 159.23 107.472 159.031Z" fill="#333333" stroke="#333333"/>
<path d="M179.372 72L180.288 74.2305C181.527 77.2657 183.397 79.7623 185.669 81.4207L187.342 82.6415L185.669 83.8623C183.397 85.5206 181.527 88.0173 180.288 91.0525L179.372 93.283L178.458 91.0525C177.216 88.0173 175.346 85.5206 173.074 83.8623L171.404 82.6415L173.074 81.4207C175.346 79.7623 177.216 77.2657 178.458 74.2305L179.372 72Z" fill="#EFEFF0"/>
<path d="M171.786 72L172.703 74.2305C173.942 77.2657 175.812 79.7623 178.084 81.4207L179.757 82.6415L178.084 83.8623C175.812 85.5206 173.942 88.0173 172.703 91.0525L171.786 93.283L170.873 91.0525C169.631 88.0173 167.761 85.5206 165.489 83.8623L163.819 82.6415L165.489 81.4207C167.761 79.7623 169.631 77.2657 170.873 74.2305L171.786 72Z" stroke="#333333" stroke-miterlimit="10"/>
<path d="M31.5699 158L32.3083 159.803C33.3127 162.26 34.8243 164.276 36.6591 165.617L38.0116 166.606L36.6591 167.591C34.8243 168.934 33.3127 170.948 32.3083 173.404L31.5699 175.208L30.829 173.404C29.8245 170.948 28.3129 168.934 26.4781 167.591L25.1256 166.606L26.4781 165.617C28.3129 164.276 29.8245 162.26 30.829 159.803L31.5699 158Z" fill="white" stroke="#333333" stroke-miterlimit="10"/>
<path d="M59.1447 48.4642L43.7569 59.9484L32.1633 44.3528L47.5479 32.8687L59.1447 48.4642Z" fill="#C7D3DF"/>
<path d="M96.6244 63.587L96.6243 63.5864C96.1763 61.5139 96.4465 59.3681 96.8152 57.7636C97.0005 56.9569 97.213 56.2769 97.3797 55.7974C97.4242 55.6692 97.4655 55.5553 97.5022 55.4569L93.7805 53.4687L62.2566 121.64C62.2565 121.64 62.2565 121.64 62.2564 121.64C61.97 122.263 62.7594 122.836 63.2639 122.343C68.2383 117.469 76.6941 107.438 85.8584 92.3431C90.5366 84.6365 93.4874 78.5983 95.1379 73.8981C96.7918 69.1883 97.1214 65.8734 96.6244 63.587Z" fill="#E0E0E0" stroke="#333333"/>
<path d="M77.5048 95.8128L62.594 100.301L54.3529 73.1958L69.2606 68.7073L77.5048 95.8128Z" fill="#C7D3DF" stroke="#333333" stroke-miterlimit="10"/>
<path d="M96.0491 41.5124L96.0491 41.5125C96.4277 46.0642 102.565 47.2225 104.72 43.2519L96.0491 41.5124ZM96.0491 41.5124C95.6394 36.5729 97.1228 30.2676 100.447 24.1533C103.771 18.036 108.258 13.3494 112.635 10.9854C116.658 8.81189 121.009 13.2735 118.844 17.257C118.844 17.2571 118.844 17.2571 118.844 17.2571L104.721 43.2516L96.0491 41.5124ZM96.298 21.923C92.4673 28.9745 90.5396 36.3132 90.4075 42.8928C90.2754 49.4775 91.941 55.265 95.2505 59.2623C97.0075 61.3807 100.466 60.9461 101.806 58.4797L130.339 5.96375L130.339 5.96362C131.534 3.76728 130.178 1.0355 127.699 0.675873C122.475 -0.0785751 116.588 1.61945 111.009 5.33213C105.434 9.04181 100.2 14.7425 96.298 21.923ZM96.298 21.923L95.8586 21.6843L96.298 21.923Z" fill="#333333" stroke="#333333"/>
<path d="M109.082 66.9635C108.982 67.0005 108.866 67.0424 108.736 67.0876C108.254 67.2542 107.571 67.4669 106.761 67.6524C105.15 68.0214 102.995 68.2926 100.913 67.8471C98.6131 67.355 95.2799 67.6872 90.5472 69.3383C85.8241 70.986 79.7575 73.9291 72.0167 78.5931C56.8586 87.7298 46.7886 96.1556 41.8933 101.111C41.4191 101.594 41.9562 102.403 42.6045 102.105L42.6047 102.105L111.083 70.6635L109.082 66.9635Z" fill="#EFEFF0" stroke="#333333"/>
<path d="M139.599 63.0728L139.6 63.0727C145.741 59.7595 150.448 55.289 152.818 50.927C155.011 46.9028 150.493 42.6062 146.514 44.7526L120.407 58.836L120.407 58.8362L120.645 59.2762C117.071 61.2007 118.151 66.6408 122.204 66.9682L139.599 63.0728ZM139.599 63.0728C133.458 66.383 127.126 67.8678 122.163 67.4666L139.599 63.0728ZM163.166 35.9274L163.166 35.927C162.806 33.4682 160.059 32.1132 157.844 33.3084L157.844 33.3084L105.098 61.757C105.098 61.757 105.098 61.757 105.098 61.7571C102.621 63.0937 102.193 66.5329 104.322 68.273L104.322 68.2732C108.343 71.5637 114.162 73.2154 120.78 73.0764C127.393 72.9374 134.766 71.0099 141.849 67.189L141.849 67.1889C149.063 63.2997 154.788 58.0862 158.509 52.5361C162.234 46.9813 163.932 41.1237 163.166 35.9274Z" fill="#333333" stroke="#333333"/>
<path d="M93.6016 75.5982L93.6021 75.5977C94.3835 74.8201 94.3835 73.5593 93.6021 72.7818C92.8191 72.0027 91.5454 72.0035 90.7661 72.7838L90.7661 72.7838L90.7645 72.7854C89.9807 73.5628 89.9807 74.8228 90.7645 75.6002L90.765 75.6007C91.5473 76.3791 92.8215 76.3768 93.6016 75.5982Z" fill="#333333" stroke="#333333"/>
<path d="M122.909 114.146C122.909 119.751 118.343 124.292 112.712 124.292C107.079 124.292 102.513 119.751 102.513 114.146C102.513 108.54 107.079 104 112.712 104C118.343 104 122.909 108.54 122.909 114.146Z" fill="#97A9BF"/>
<path d="M161.544 135.456C165.603 135.055 168.362 139.464 166.212 142.912C165.357 144.283 165.234 145.981 165.886 147.459C167.522 151.179 164.164 155.151 160.201 154.181C158.629 153.795 156.966 154.205 155.754 155.279C152.707 157.975 147.873 156.026 147.571 151.975C147.455 150.369 146.547 148.921 145.151 148.108C141.627 146.055 142 140.875 145.779 139.345C147.276 138.733 148.38 137.432 148.728 135.857C149.598 131.888 154.666 130.64 157.298 133.739C158.343 134.972 159.933 135.615 161.544 135.456Z" fill="white"/>
</svg>
