<?xml version="1.0" encoding="UTF-8" standalone="no"?>
<svg
   width="94"
   height="106"
   viewBox="0 0 94 106"
   fill="none"
   version="1.1"
   id="svg27743"
   sodipodi:docname="video.svg"
   inkscape:version="1.1.1 (3bf5ae0d25, 2021-09-20)"
   xmlns:inkscape="http://www.inkscape.org/namespaces/inkscape"
   xmlns:sodipodi="http://sodipodi.sourceforge.net/DTD/sodipodi-0.dtd"
   xmlns="http://www.w3.org/2000/svg"
   xmlns:svg="http://www.w3.org/2000/svg">
  <defs
     id="defs27747" />
  <sodipodi:namedview
     id="namedview27745"
     pagecolor="#ffffff"
     bordercolor="#666666"
     borderopacity="1.0"
     inkscape:pageshadow="2"
     inkscape:pageopacity="0.0"
     inkscape:pagecheckerboard="0"
     showgrid="false"
     inkscape:zoom="7.5849057"
     inkscape:cx="46.935323"
     inkscape:cy="53"
     inkscape:current-layer="svg27743" />
  <path
     d="M0 63C0 61.8954 0.89543 61 2 61H92C93.1046 61 94 61.8954 94 63V104C94 105.105 93.1046 106 92 106H2C0.89543 106 0 105.105 0 104V63Z"
     fill="#C7D3DF"
     id="path27713" />
  <path
     d="M58.7073 83.5148C58.7073 90.0824 53.3851 95.4045 46.8176 95.4045C40.25 95.4045 34.9263 90.0824 34.9263 83.5148C34.9263 76.9473 40.25 71.6235 46.8176 71.6235C53.3851 71.6235 58.7073 76.9473 58.7073 83.5148Z"
     fill="white"
     stroke="#333333"
     stroke-miterlimit="10"
     id="path27715" />
  <path
     d="M50.1204 83.1089L45.3404 79.6872C45.0095 79.4504 44.5493 79.6869 44.5493 80.0938V86.9351C44.5493 87.3419 45.0093 87.5784 45.3402 87.3417L50.1202 83.9221C50.399 83.7227 50.399 83.3084 50.1204 83.1089Z"
     fill="#333333"
     stroke="#333333"
     id="path27717" />
  <path
     d="M75.2016 44L75.6848 45.1822C76.3384 46.7908 77.3243 48.114 78.5227 48.9929L79.4048 49.64L78.5227 50.287C77.3243 51.1659 76.3384 52.4892 75.6848 54.0978L75.2016 55.28L74.72 54.0978C74.0649 52.4892 73.0789 51.1659 71.8805 50.287L71 49.64L71.8805 48.9929C73.0789 48.114 74.0649 46.7908 74.72 45.1822L75.2016 44Z"
     fill="#EFEFF0"
     id="path27719" />
  <path
     d="M71.2016 44L71.6848 45.1822C72.3384 46.7908 73.3243 48.114 74.5227 48.9929L75.4048 49.64L74.5227 50.287C73.3243 51.1659 72.3384 52.4892 71.6848 54.0978L71.2016 55.28L70.72 54.0978C70.0649 52.4892 69.0789 51.1659 67.8805 50.287L67 49.64L67.8805 48.9929C69.0789 48.114 70.0649 46.7908 70.72 45.1822L71.2016 44Z"
     stroke="#333333"
     stroke-miterlimit="10"
     id="path27721" />
  <path
     d="M17.3984 89L17.7878 89.9558C18.3174 91.2577 19.1146 92.3263 20.0822 93.0369L20.7954 93.5613L20.0822 94.0831C19.1146 94.7951 18.3174 95.8623 17.7878 97.1642L17.3984 98.12L17.0077 97.1642C16.478 95.8623 15.6808 94.7951 14.7132 94.0831L14 93.5613L14.7132 93.0369C15.6808 92.3263 16.478 91.2577 17.0077 89.9558L17.3984 89Z"
     fill="white"
     stroke="#333333"
     stroke-miterlimit="10"
     id="path27723" />
  <path
     d="M25.1492 26.2362L18.4518 32.4712L12.0671 24.9816L18.7629 18.7468L25.1492 26.2362Z"
     fill="#C7D3DF"
     id="path27725" />
  <path
     d="M39.6659 48.8207C42.1284 44.7437 43.6758 41.5588 44.5388 39.0887C45.4052 36.6091 45.5637 34.9006 45.3149 33.7504L45.3148 33.7498C45.0684 32.6039 45.2182 31.4284 45.4161 30.5624C45.5152 30.1291 45.6287 29.7631 45.7184 29.5031L44.1561 28.6643L27.6372 64.5663C27.6371 64.5664 27.6371 64.5665 27.637 64.5666C27.619 64.6061 27.624 64.6252 27.6265 64.6334C27.631 64.6477 27.6435 64.6682 27.6679 64.6854C27.6923 64.7026 27.7154 64.7072 27.7295 64.7066C27.7372 64.7063 27.7563 64.7049 27.7873 64.6744L28.1377 65.031L27.7869 64.6747C30.3938 62.1079 34.8413 56.8073 39.6659 48.8207ZM39.6659 48.8207L40.0939 49.0792L39.6659 48.8207Z"
     fill="#E0E0E0"
     stroke="#333333"
     id="path27727" />
  <path
     d="M35.4632 50.7808L27.6 53.1597L23.254 38.7938L31.1156 36.4149L35.4632 50.7808Z"
     fill="#C7D3DF"
     stroke="#333333"
     stroke-miterlimit="10"
     id="path27729" />
  <path
     d="M45.0071 22.0209L45.0071 22.0208C44.7864 19.3468 45.5849 15.9597 47.3536 12.69C49.1223 9.41869 51.5178 6.89605 53.876 5.61592C56.2187 4.34382 58.7167 6.95549 57.4716 9.25753L50.0237 23.0345C50.0237 23.0346 50.0236 23.0346 50.0236 23.0347C48.7798 25.3376 45.2268 24.6752 45.0071 22.0209ZM63.1174 3.04948L63.1174 3.04934C63.6716 2.02505 63.0399 0.757244 61.8994 0.590734C59.2189 0.201668 56.1732 1.07508 53.2636 3.02098C50.3587 4.96378 47.6234 7.95516 45.5819 11.7305C43.578 15.4379 42.5726 19.2911 42.5038 22.7378C42.4349 26.1897 43.3046 29.1967 45.0041 31.2599C45.8143 32.2417 47.436 32.0563 48.0704 30.8829L48.5102 31.1207L48.0704 30.8829L63.1174 3.04948Z"
     fill="#333333"
     stroke="#333333"
     id="path27731" />
  <path
     d="M16.9593 53.9024L52.8445 37.3431L52.0035 35.7807C51.7437 35.8708 51.378 35.9849 50.9449 36.0846C50.0792 36.2839 48.9039 36.4351 47.7576 36.1885C46.6074 35.9412 44.8989 36.1016 42.4198 36.9708C39.9503 37.8366 36.7667 39.3876 32.6921 41.8549C24.7125 46.6889 19.4184 51.1427 16.8528 53.753C16.823 53.7836 16.8215 53.8025 16.8212 53.8104C16.8206 53.8247 16.8254 53.848 16.8426 53.8724C16.8598 53.8968 16.8801 53.909 16.8938 53.9132C16.9014 53.9156 16.9198 53.9207 16.959 53.9025L16.9593 53.9024Z"
     fill="#EFEFF0"
     stroke="#333333"
     id="path27733" />
  <path
     d="M68.3221 33.6349L68.3219 33.635C65.0541 35.4053 61.6687 36.2089 58.9947 35.9916C56.3376 35.7758 55.6743 32.2221 57.975 30.9767L71.7422 23.5126C74.0412 22.2661 76.6586 24.7586 75.3876 27.1029C74.1107 29.4645 71.5898 31.863 68.3221 33.6349ZM80.4031 19.0755L80.403 19.0751C80.2368 17.9354 78.9681 17.304 77.9432 17.8598L77.9431 17.8599L50.1276 32.9376C50.1276 32.9376 50.1275 32.9376 50.1275 32.9376C48.9556 33.5733 48.773 35.1962 49.7558 36.0036L49.756 36.0038C51.8207 37.7019 54.8281 38.5685 58.2795 38.4956C61.7255 38.4228 65.5772 37.4127 69.2822 35.4039L69.2823 35.4038C73.056 33.3592 76.0446 30.6211 77.984 27.7143C79.9265 24.8028 80.796 21.7561 80.4031 19.0755Z"
     fill="#333333"
     stroke="#333333"
     id="path27735" />
  <path
     d="M43.784 39.9016L43.7846 39.9011C44.105 39.5806 44.105 39.0605 43.7846 38.7401C43.464 38.4194 42.943 38.4202 42.6247 38.7406L42.6247 38.7406L42.623 38.7422C42.3018 39.0625 42.3018 39.5818 42.623 39.9021L42.6236 39.9027C42.9435 40.2226 43.4649 40.2218 43.784 39.9016Z"
     fill="#333333"
     stroke="#333333"
     id="path27737" />
  <path
     d="M52.4824 59.6926C52.4824 62.6634 50.0743 65.0699 47.1051 65.0699C44.1343 65.0699 41.7262 62.6634 41.7262 59.6926C41.7262 56.7218 44.1343 54.3153 47.1051 54.3153C50.0743 54.3153 52.4824 56.7218 52.4824 59.6926Z"
     fill="#97A9BF"
     id="path27739" />
  <path
     d="M77.9304 69.8316C80.071 69.6192 81.5256 71.9559 80.392 73.7835C79.9412 74.51 79.8764 75.41 80.2202 76.1932C81.0829 78.1651 79.312 80.2699 77.2218 79.7559C76.3931 79.5516 75.5158 79.7689 74.8769 80.3381C73.2699 81.7667 70.7207 80.7337 70.5618 78.5867C70.5002 77.7354 70.0218 76.9683 69.2856 76.537C67.4272 75.4489 67.6234 72.7035 69.6164 71.8927C70.4061 71.5684 70.9883 70.8792 71.1715 70.044C71.6305 67.9408 74.3029 67.2792 75.691 68.9219C76.2423 69.5754 77.0807 69.9159 77.9304 69.8316Z"
     fill="white"
     id="path27741" />
</svg>
