<svg width="202" height="201" viewBox="0 0 202 201" fill="none" xmlns="http://www.w3.org/2000/svg">
<path d="M24.303 28.7018L24.9379 30.2461C25.796 32.3458 27.093 34.0729 28.667 35.2226L29.8266 36.0679L28.667 36.9131C27.093 38.0628 25.796 39.7899 24.9379 41.8896L24.303 43.434L23.668 41.8896C22.8074 39.7899 21.5129 38.0628 19.9389 36.9131L18.7793 36.0679L19.9389 35.2226C21.5129 34.0729 22.8074 32.3458 23.668 30.2461L24.303 28.7018Z" fill="#F2F2F2"/>
<path d="M27.2478 22.8503L27.8828 24.3947C28.7409 26.4944 30.0378 28.2214 31.6118 29.3712L32.7715 30.2164L31.6118 31.0617C30.0378 32.2114 28.7409 33.9384 27.8828 36.0382L27.2478 37.5825L26.6128 36.0382C25.7523 33.9384 24.4578 32.2114 22.8838 31.0617L21.7242 30.2164L22.8838 29.3712C24.4578 28.2214 25.7523 26.4944 26.6128 24.3947L27.2478 22.8503Z" stroke="#333333" stroke-miterlimit="10"/>
<path d="M181.709 61.6001L182.134 62.6378C182.712 64.0481 183.582 65.2052 184.637 65.9774L185.416 66.5449L184.637 67.1125C183.582 67.8822 182.712 69.0417 182.134 70.4521L181.709 71.4897L181.283 70.4521C180.704 69.0417 179.834 67.8822 178.78 67.1125L178 66.5449L178.78 65.9774C179.834 65.2052 180.704 64.0481 181.283 62.6378L181.709 61.6001Z" fill="white"/>
<path d="M181.709 61.6001L182.134 62.6378C182.712 64.0481 183.582 65.2052 184.637 65.9774L185.416 66.5449L184.637 67.1125C183.582 67.8822 182.712 69.0417 182.134 70.4521L181.709 71.4897L181.283 70.4521C180.704 69.0417 179.834 67.8822 178.78 67.1125L178 66.5449L178.78 65.9774C179.834 65.2052 180.704 64.0481 181.283 62.6378L181.709 61.6001Z" stroke="#333333" stroke-miterlimit="10"/>
<path d="M10.7511 43.3314L11.1826 44.3813C11.7685 45.8087 12.6462 46.9804 13.7176 47.7599L14.5046 48.3372L13.7176 48.9096C12.6462 49.6891 11.7685 50.8656 11.1826 52.293L10.7511 53.3405L10.322 52.293C9.73608 50.8656 8.85593 49.6891 7.78454 48.9096L7 48.3372L7.78454 47.7599C8.85593 46.9804 9.73608 45.8087 10.322 44.3813L10.7511 43.3314Z" fill="white"/>
<path d="M10.7511 43.3314L11.1826 44.3813C11.7685 45.8087 12.6462 46.9804 13.7176 47.7599L14.5046 48.3372L13.7176 48.9096C12.6462 49.6891 11.7685 50.8656 11.1826 52.293L10.7511 53.3405L10.322 52.293C9.73608 50.8656 8.85593 49.6891 7.78454 48.9096L7 48.3372L7.78454 47.7599C8.85593 46.9804 9.73608 45.8087 10.322 44.3813L10.7511 43.3314Z" stroke="#333333" stroke-miterlimit="10"/>
<path d="M122.742 106.488H17V80.4763H108.219C119.266 80.4763 122.742 90.8402 122.742 103.62V106.488Z" fill="#EFEFF0"/>
<path d="M118.743 98.5425H11V80.4789H103.944C115.2 80.4789 118.743 87.6759 118.743 96.5507V98.5425Z" stroke="#333333" stroke-miterlimit="10"/>
<path d="M91.4019 93.1023C91.4019 88.0304 87.99 80.4763 73.2211 80.4763H1V89.6608V200H200.998V93.1023H91.4019Z" fill="white"/>
<path d="M91.4019 93.1023C91.4019 88.0304 87.99 80.4763 73.2211 80.4763H2C1.44772 80.4763 1 80.924 1 81.4763V89.6608V199C1 199.552 1.44772 200 2 200H199.998C200.55 200 200.998 199.552 200.998 199V94.1023C200.998 93.55 200.55 93.1023 199.998 93.1023H91.4019Z" stroke="#333333" stroke-miterlimit="10"/>
<path d="M18.8652 92.4257C18.8652 94.7831 16.9428 96.6931 14.57 96.6931C12.1973 96.6931 10.2749 94.7831 10.2749 92.4257C10.2749 90.0682 12.1973 88.1582 14.57 88.1582C16.9428 88.1582 18.8652 90.0682 18.8652 92.4257Z" fill="#333333"/>
<path d="M30.6198 92.4257C30.6198 94.7831 28.6973 96.6931 26.3246 96.6931C23.9519 96.6931 22.0294 94.7831 22.0294 92.4257C22.0294 90.0682 23.9519 88.1582 26.3246 88.1582C28.6973 88.1582 30.6198 90.0682 30.6198 92.4257Z" fill="#333333"/>
<path d="M42.3747 92.4257C42.3747 94.7831 40.4523 96.6931 38.0796 96.6931C35.7068 96.6931 33.7844 94.7831 33.7844 92.4257C33.7844 90.0682 35.7068 88.1582 38.0796 88.1582C40.4523 88.1582 42.3747 90.0682 42.3747 92.4257Z" fill="#333333"/>
<path d="M74.2952 95.6809H53.1668C51.3903 95.6809 49.9501 94.4908 49.9501 93.0276V91.818C49.9501 90.3547 51.3903 89.1646 53.1668 89.1646H74.2952C76.0717 89.1646 77.5166 90.3547 77.5166 91.818V93.0276C77.5166 94.4908 76.0717 95.6809 74.2952 95.6809Z" fill="#333333"/>
<path d="M87 186.779C87 187.332 86.5523 187.779 86 187.779H24C23.4477 187.779 23 187.332 23 186.779V145.063C23 144.511 23.4477 144.063 24 144.063H86C86.5523 144.063 87 144.511 87 145.063V186.779Z" fill="#C7D3DF"/>
<path d="M191 128.167H3.00009V112.27H191V128.167Z" fill="#333333" stroke="#333333" stroke-width="1.33333" stroke-miterlimit="10"/>
<path d="M44.6301 123.918H16.3936C15.1364 123.918 14.1172 122.732 14.1172 121.265V120.055C14.1172 118.592 15.1364 117.402 16.3936 117.402H44.6301C45.8874 117.402 46.91 118.592 46.91 120.055V121.265C46.91 122.732 45.8874 123.918 44.6301 123.918Z" fill="white"/>
<path d="M134.264 123.918H106.027C104.77 123.918 103.751 122.732 103.751 121.265V120.055C103.751 118.592 104.77 117.402 106.027 117.402H134.264C135.521 117.402 136.544 118.592 136.544 120.055V121.265C136.544 122.732 135.521 123.918 134.264 123.918Z" fill="white"/>
<path d="M86.1286 123.918H57.4078C56.129 123.918 55.0889 122.732 55.0889 121.265V120.055C55.0889 118.592 56.129 117.402 57.4078 117.402H86.1286C87.4074 117.402 88.4475 118.592 88.4475 120.055V121.265C88.4475 122.732 87.4074 123.918 86.1286 123.918Z" fill="#EFEFF0"/>
<path d="M175.762 123.918H147.042C145.763 123.918 144.723 122.732 144.723 121.265V120.055C144.723 118.592 145.763 117.402 147.042 117.402H175.762C177.041 117.402 178.081 118.592 178.081 120.055V121.265C178.081 122.732 177.041 123.918 175.762 123.918Z" fill="#EFEFF0"/>
<path d="M190.964 112.115H201V151.671H190.964V112.115Z" fill="#EFEFF0" stroke="#333333" stroke-miterlimit="10"/>
<path d="M190.966 112.116L190.966 199Z" fill="#333333"/>
<path d="M190.966 112.116L190.966 199" stroke="#333333" stroke-miterlimit="10"/>
<path d="M108.123 152.155H168.537" stroke="#333333" stroke-miterlimit="10" stroke-linecap="round"/>
<path d="M108.123 165.322H168.537" stroke="#333333" stroke-miterlimit="10" stroke-linecap="round"/>
<path d="M108.123 178.489H168.537" stroke="#333333" stroke-miterlimit="10" stroke-linecap="round"/>
<path d="M145.058 169.585L148.123 187.781L152.006 181.857L159.121 181.859L145.058 169.585Z" fill="#333333"/>
<path d="M141.471 116.027C140.524 118.588 137.628 120.027 135.002 119.241L97.9391 108.145C95.3131 107.359 93.9521 104.645 94.8992 102.083L128.838 10.2895C129.785 7.72795 132.682 6.28871 135.308 7.07491L172.371 18.1711C174.997 18.9573 176.358 21.6713 175.411 24.2328L141.471 116.027Z" fill="#EFEFF0" stroke="#333333" stroke-miterlimit="10"/>
<path d="M155.22 57.7361C155.03 58.2483 154.45 58.5364 153.925 58.3796L121.855 48.8081C121.329 48.6512 121.058 48.1089 121.248 47.5967L128.654 27.6437C128.844 27.1315 129.424 26.8434 129.95 27.0002L162.02 36.5718C162.545 36.7286 162.817 37.2709 162.627 37.7831L155.22 57.7361Z" fill="#97A9BF" stroke="#333333" stroke-miterlimit="10"/>
<path d="M143.647 93.0723C143.459 93.5848 142.881 93.872 142.357 93.7138L109.915 83.9285C109.39 83.7702 109.117 83.2264 109.305 82.7139L114.077 69.712C114.265 69.1995 114.842 68.9122 115.367 69.0705L147.809 78.8558C148.333 79.014 148.606 79.5579 148.418 80.0704L143.647 93.0723Z" fill="#97A9BF"/>
<path d="M118.026 55.4308L152.445 66.9101Z" fill="#EFEFF0"/>
<path d="M118.026 55.4308L152.445 66.9101" stroke="#333333" stroke-miterlimit="10" stroke-linecap="round"/>
<path d="M116.16 60.9536L150.579 72.4329Z" fill="#EFEFF0"/>
<path d="M116.16 60.9536L150.579 72.4329" stroke="#333333" stroke-miterlimit="10" stroke-linecap="round"/>
<path d="M137.718 17.243L137.43 7.94836L168.257 17.3641L162.708 24.7408C162.18 25.4423 161.254 25.7475 160.423 25.4937L139.058 18.9679C138.275 18.7289 137.743 18.0439 137.718 17.243Z" fill="#333333"/>
<path d="M159.88 20.2061C159.689 20.7408 159.094 21.0374 158.549 20.8686L151.447 18.6663C150.902 18.4976 150.615 17.9273 150.806 17.3926V17.3926C150.996 16.858 151.592 16.5614 152.136 16.7301L159.239 18.9325C159.783 19.1012 160.07 19.6715 159.88 20.2061V20.2061Z" fill="#F2F2F2"/>
<path d="M149.156 16.6652C148.968 17.1794 148.388 17.4674 147.862 17.3085L145.284 16.5299C144.758 16.3709 144.484 15.8252 144.673 15.311V15.311C144.861 14.7968 145.44 14.5089 145.967 14.6678L148.544 15.4464C149.071 15.6053 149.344 16.151 149.156 16.6652V16.6652Z" fill="#F2F2F2"/>
<path d="M140.081 104.85C139.898 105.363 139.326 105.648 138.803 105.486L105.932 95.3115C105.409 95.1497 105.134 94.6022 105.317 94.0888L107.409 88.2234C107.592 87.7099 108.165 87.4249 108.688 87.5868L141.558 97.7615C142.081 97.9233 142.357 98.4708 142.174 98.9842L140.081 104.85Z" fill="white" stroke="#333333" stroke-miterlimit="10"/>
<path d="M83.5855 66.9486L86.9172 65.1962L89.752 56.4113L95.5754 59.386L91.4173 70.1168L84.4058 73.7953L83.5855 66.9486Z" fill="#EFEFF0"/>
<path d="M83.5855 66.9487L86.9169 65.1964L89.7516 56.4117L91.6651 56.3913L95.5746 59.3863L91.4168 70.1168L84.4058 73.7953L83.5855 66.9487Z" stroke="#333333" stroke-miterlimit="10"/>
<path d="M84.3226 73.8106C84.0537 69.155 91.4963 70.0628 91.4963 70.0628L95.7482 59.1356L101.296 65.225L95.9275 74.2904L84.6449 76.7764L84.3226 73.8106Z" fill="#EFEFF0"/>
<path d="M84.3226 73.8106C84.0537 69.155 91.4963 70.0628 91.4963 70.0628L95.7482 59.1356L101.296 65.225L95.9275 74.2904L84.6449 76.7764L84.3226 73.8106Z" stroke="#333333" stroke-miterlimit="10"/>
<path d="M106.691 72.4325C106.691 72.4325 103.341 81.2087 101.255 82.2982C99.1666 83.3878 94.3851 81.2667 89.6332 79.838C84.8815 78.4064 85.6704 76.5641 88.3425 74.8848C91.0172 73.2114 94.5223 73.7835 96.0835 74.2817C97.6419 74.7769 98.5335 64.8055 101.386 65.3354L106.691 72.4325Z" fill="#EFEFF0"/>
<path d="M106.691 72.4325C106.691 72.4325 103.341 81.2087 101.255 82.2982C99.1666 83.3878 94.3851 81.2667 89.6332 79.838C84.8815 78.4064 85.6704 76.5641 88.3425 74.8848C91.0172 73.2114 94.5223 73.7835 96.0835 74.2817C97.6419 74.7769 98.5335 64.8055 101.386 65.3354L106.691 72.4325Z" stroke="#333333" stroke-miterlimit="10"/>
<path d="M44.2168 21.6979C44.2168 21.6979 58.7854 32.2725 66.4824 42.9561C70.0341 47.8785 70.8791 55.2142 72.1277 60.8345C74.5424 71.6909 74.3493 71.3021 77.2481 77.5399C79.6303 82.6703 83.0372 84.5218 84.133 78.5581C84.9795 73.9595 78.5729 58.1883 89.2539 56.5364C95.5816 55.5532 108.935 77.4514 112.086 81.5438C119.317 90.9353 125.281 86.0337 121.351 80.6819C118.318 76.5536 114.553 69.8151 110.347 63.148C104.082 53.2118 97.6402 41.9821 94.4733 37.9996C89.4934 31.7331 73.1648 13.2042 65.7502 4.82472C63.4388 2.21241 59.8539 1.02824 56.5856 2.47667C50.8041 5.03886 42.6885 10.6568 44.2168 21.6979Z" fill="#EFEFF0"/>
<path d="M44.0422 19.7419C44.0905 21.0001 44.7575 22.1241 45.7189 22.9148C49.7544 26.2342 60.9468 35.7758 67.1785 44.4256C70.7303 49.348 70.8791 55.2142 72.1277 60.8345C74.5424 71.6909 74.3493 71.3021 77.2481 77.5399C79.6303 82.6703 83.0372 84.5218 84.133 78.5581C84.9795 73.9595 78.5729 58.1883 89.2539 56.5364C95.5816 55.5532 108.935 77.4514 112.086 81.5438C119.317 90.9353 125.281 86.0337 121.351 80.6819C118.318 76.5536 114.553 69.8151 110.347 63.148C104.082 53.2118 97.6402 41.9821 94.4733 37.9996C89.0177 31.1345 69.9418 9.55255 63.8872 2.72086C62.7304 1.41562 60.9629 0.843889 59.2749 1.42257C54.1274 3.18731 43.5998 8.21662 44.0422 19.7419Z" stroke="#333333" stroke-miterlimit="10"/>
<path d="M49.9953 50.671V52.55Z" fill="white"/>
<path d="M49.9953 50.671V52.55" stroke="#333333" stroke-miterlimit="10" stroke-linecap="round"/>
<path d="M42 55.3756L43.0804 55.9958Z" fill="white"/>
<path d="M42 55.3756L43.0804 55.9958" stroke="#333333" stroke-miterlimit="10" stroke-linecap="round"/>
<path d="M42.1029 64.6072L43.08 64.0473Z" fill="white"/>
<path d="M42.1029 64.6072L43.08 64.0473" stroke="#333333" stroke-miterlimit="10" stroke-linecap="round"/>
<path d="M50.2011 68.4543V67.1956Z" fill="white"/>
<path d="M50.2011 68.4543V67.1956" stroke="#333333" stroke-miterlimit="10" stroke-linecap="round"/>
<path d="M58.1965 64.4285L56.5445 63.4799Z" fill="white"/>
<path d="M58.1965 64.4285L56.5445 63.4799" stroke="#333333" stroke-miterlimit="10" stroke-linecap="round"/>
<path d="M57.4818 55.5487L56.4358 56.1469Z" fill="white"/>
<path d="M57.4818 55.5487L56.4358 56.1469" stroke="#333333" stroke-miterlimit="10" stroke-linecap="round"/>
<path d="M50.0487 55.5483V59.1292Z" fill="white"/>
<path d="M50.0487 55.5483V59.1292" stroke="#333333" stroke-miterlimit="10" stroke-linecap="round"/>
<path d="M46.2778 57.7672L49.4014 59.5596Z" fill="white"/>
<path d="M46.2778 57.7672L49.4014 59.5596" stroke="#333333" stroke-miterlimit="10" stroke-linecap="round"/>
<path d="M46.3273 62.1213L49.4489 60.3289Z" fill="white"/>
<path d="M46.3273 62.1213L49.4489 60.3289" stroke="#333333" stroke-miterlimit="10" stroke-linecap="round"/>
<path d="M50.1478 64.2554V60.6746Z" fill="white"/>
<path d="M50.1478 64.2554V60.6746" stroke="#333333" stroke-miterlimit="10" stroke-linecap="round"/>
<path d="M53.9187 62.0371L50.795 60.2447Z" fill="white"/>
<path d="M53.9187 62.0371L50.795 60.2447" stroke="#333333" stroke-miterlimit="10" stroke-linecap="round"/>
<path d="M53.8692 57.6827L50.7476 59.4751Z" fill="white"/>
<path d="M53.8692 57.6827L50.7476 59.4751" stroke="#333333" stroke-miterlimit="10" stroke-linecap="round"/>
</svg>
