<svg width="123" height="153" viewBox="0 0 123 153" fill="none" xmlns="http://www.w3.org/2000/svg">
<g clip-path="url(#clip0_8_2)">
<path d="M14.2912 43.1247L14.7905 44.3471C15.4653 46.009 16.4852 47.376 17.723 48.286L18.6349 48.955L17.723 49.624C16.4852 50.534 15.4653 51.901 14.7905 53.5629L14.2912 54.7852L13.7918 53.5629C13.1151 51.901 12.0971 50.534 10.8593 49.624L9.94739 48.955L10.8593 48.286C12.0971 47.376 13.1151 46.009 13.7918 44.3471L14.2912 43.1247Z" fill="#F2F2F2"/>
<path d="M16.607 38.4932L17.1063 39.7155C17.7811 41.3775 18.801 42.7444 20.0388 43.6544L20.9507 44.3234L20.0388 44.9924C18.801 45.9025 17.7811 47.2694 17.1063 48.9313L16.607 50.1537L16.1076 48.9313C15.4309 47.2694 14.4129 45.9025 13.1751 44.9924L12.2632 44.3234L13.1751 43.6544C14.4129 42.7444 15.4309 41.3775 16.1076 39.7155L16.607 38.4932Z" stroke="#333333" stroke-miterlimit="10"/>
<path d="M119.391 76.7037L119.724 77.525C120.179 78.6414 120.864 79.5571 121.693 80.1683L122.306 80.6175L121.693 81.0668C120.864 81.676 120.179 82.5937 119.724 83.71L119.391 84.5314L119.055 83.71C118.6 82.5937 117.916 81.676 117.087 81.0668L116.474 80.6175L117.087 80.1683C117.916 79.5571 118.6 78.6414 119.055 77.525L119.391 76.7037Z" fill="white"/>
<path d="M119.391 76.7037L119.724 77.525C120.179 78.6414 120.864 79.5571 121.693 80.1683L122.306 80.6175L121.693 81.0668C120.864 81.676 120.179 82.5937 119.724 83.71L119.391 84.5314L119.055 83.71C118.6 82.5937 117.916 81.676 117.087 81.0668L116.474 80.6175L117.087 80.1683C117.916 79.5571 118.6 78.6414 119.055 77.525L119.391 76.7037Z" stroke="#333333" stroke-miterlimit="10"/>
<path d="M3.63404 54.7037L3.97336 55.5347C4.43415 56.6645 5.12438 57.5918 5.96691 58.2088L6.58579 58.6657L5.96691 59.1188C5.12438 59.7358 4.43415 60.667 3.97336 61.7968L3.63404 62.6258L3.29664 61.7968C2.83585 60.667 2.1437 59.7358 1.30116 59.1188L0.684204 58.6657L1.30116 58.2088C2.1437 57.5918 2.83585 56.6645 3.29664 55.5347L3.63404 54.7037Z" fill="white"/>
<path d="M3.63404 54.7037L3.97336 55.5347C4.43415 56.6645 5.12438 57.5918 5.96691 58.2088L6.58579 58.6657L5.96691 59.1188C5.12438 59.7358 4.43415 60.667 3.97336 61.7968L3.63404 62.6258L3.29664 61.7968C2.83585 60.667 2.1437 59.7358 1.30116 59.1188L0.684204 58.6657L1.30116 58.2088C2.1437 57.5918 2.83585 56.6645 3.29664 55.5347L3.63404 54.7037Z" stroke="#333333" stroke-miterlimit="10"/>
<path d="M71.1667 97.6505H9.94739V82.4932H62.7582C69.1541 82.4932 71.1667 88.5323 71.1667 95.9792V97.6505Z" fill="#EFEFF0"/>
<path d="M68.8509 93.0204H6.47369V82.4947H60.2833C66.8002 82.4947 68.8509 86.6885 68.8509 91.8598V93.0204Z" stroke="#333333" stroke-miterlimit="10"/>
<path d="M53.0221 89.8504C53.0221 86.895 51.0468 82.4932 42.4964 82.4932H0.684204V87.845V152.14H116.472V89.8504H53.0221Z" fill="white"/>
<path d="M53.0221 89.8504C53.0221 86.895 51.0468 82.4932 42.4964 82.4932H1.6842C1.13192 82.4932 0.684204 82.9409 0.684204 83.4932V87.845V151.14C0.684204 151.693 1.13192 152.14 1.6842 152.14H115.472C116.025 152.14 116.472 151.693 116.472 151.14V90.8504C116.472 90.2981 116.025 89.8504 115.472 89.8504H53.0221Z" stroke="#333333" stroke-miterlimit="10"/>
<path d="M11.0272 89.4561C11.0272 90.8298 9.91419 91.9428 8.54051 91.9428C7.16682 91.9428 6.05383 90.8298 6.05383 89.4561C6.05383 88.0824 7.16682 86.9694 8.54051 86.9694C9.91419 86.9694 11.0272 88.0824 11.0272 89.4561Z" fill="#333333"/>
<path d="M17.8325 89.4561C17.8325 90.8298 16.7195 91.9428 15.3458 91.9428C13.9721 91.9428 12.8591 90.8298 12.8591 89.4561C12.8591 88.0824 13.9721 86.9694 15.3458 86.9694C16.7195 86.9694 17.8325 88.0824 17.8325 89.4561Z" fill="#333333"/>
<path d="M24.638 89.4561C24.638 90.8298 23.525 91.9428 22.1513 91.9428C20.7777 91.9428 19.6647 90.8298 19.6647 89.4561C19.6647 88.0824 20.7777 86.9694 22.1513 86.9694C23.525 86.9694 24.638 88.0824 24.638 89.4561Z" fill="#333333"/>
<path d="M43.1183 91.353H30.886C29.8575 91.353 29.0237 90.6595 29.0237 89.8069V89.102C29.0237 88.2494 29.8575 87.5559 30.886 87.5559H43.1183C44.1468 87.5559 44.9833 88.2494 44.9833 89.102V89.8069C44.9833 90.6595 44.1468 91.353 43.1183 91.353Z" fill="#333333"/>
<path d="M50.4737 144.019C50.4737 144.572 50.0259 145.019 49.4737 145.019H14.421C13.8687 145.019 13.421 144.572 13.421 144.019V120.546C13.421 119.994 13.8687 119.546 14.421 119.546H49.4737C50.0259 119.546 50.4737 119.994 50.4737 120.546V144.019Z" fill="#C7D3DF"/>
<path d="M110.684 110.283H1.8421V101.019H110.684V110.283Z" fill="#333333" stroke="#333333" stroke-width="1.33333" stroke-miterlimit="10"/>
<path d="M25.9437 107.807H9.59629C8.8684 107.807 8.27832 107.116 8.27832 106.261V105.556C8.27832 104.703 8.8684 104.01 9.59629 104.01H25.9437C26.6716 104.01 27.2636 104.703 27.2636 105.556V106.261C27.2636 107.116 26.6716 107.807 25.9437 107.807Z" fill="white"/>
<path d="M77.837 107.807H61.4895C60.7616 107.807 60.1716 107.116 60.1716 106.261V105.556C60.1716 104.703 60.7616 104.01 61.4895 104.01H77.837C78.5649 104.01 79.1569 104.703 79.1569 105.556V106.261C79.1569 107.116 78.5649 107.807 77.837 107.807Z" fill="white"/>
<path d="M49.9691 107.807H33.3413C32.601 107.807 31.9988 107.116 31.9988 106.261V105.556C31.9988 104.703 32.601 104.01 33.3413 104.01H49.9691C50.7095 104.01 51.3117 104.703 51.3117 105.556V106.261C51.3117 107.116 50.7095 107.807 49.9691 107.807Z" fill="#EFEFF0"/>
<path d="M101.862 107.807H85.2346C84.4942 107.807 83.892 107.116 83.892 106.261V105.556C83.892 104.703 84.4942 104.01 85.2346 104.01H101.862C102.603 104.01 103.205 104.703 103.205 105.556V106.261C103.205 107.116 102.603 107.807 101.862 107.807Z" fill="#EFEFF0"/>
<path d="M110.663 100.929H116.474V123.979H110.663V100.929Z" fill="#EFEFF0" stroke="#333333" stroke-miterlimit="10"/>
<path d="M110.665 100.93V151.557" stroke="#333333" stroke-miterlimit="10"/>
<path d="M62.7029 124.261H97.6792" stroke="#333333" stroke-miterlimit="10" stroke-linecap="round"/>
<path d="M62.7029 131.933H97.6792" stroke="#333333" stroke-miterlimit="10" stroke-linecap="round"/>
<path d="M62.7029 139.605H97.6792" stroke="#333333" stroke-miterlimit="10" stroke-linecap="round"/>
<path d="M93.3158 133.441L95.7258 147.843L98.7797 143.154L104.375 143.156L93.3158 133.441Z" fill="#333333"/>
<path d="M92.0179 95.3574C91.0758 97.9218 88.1842 99.3594 85.5593 98.5684L63.3319 91.8706C60.7069 91.0796 59.3426 88.3595 60.2847 85.7952L82.3355 25.768C83.2775 23.2036 86.1691 21.766 88.7941 22.557L111.021 29.2548C113.646 30.0458 115.011 32.7659 114.069 35.3302L92.0179 95.3574Z" fill="#EFEFF0" stroke="#333333" stroke-miterlimit="10"/>
<path d="M100.957 56.552C100.768 57.0648 100.189 57.3525 99.6634 57.1948L78.4171 50.8125C77.8919 50.6548 77.6194 50.1112 77.8085 49.5985L82.6395 36.4995C82.8286 35.9868 83.4077 35.699 83.9329 35.8568L105.179 42.239C105.704 42.3968 105.977 42.9404 105.788 43.4531L100.957 56.552Z" fill="#97A9BF" stroke="#333333" stroke-miterlimit="10"/>
<path d="M93.0698 80.7851C92.8827 81.2982 92.3059 81.5851 91.7814 81.4259L70.2812 74.8988C69.7567 74.7395 69.4832 74.1945 69.6702 73.6814L72.7078 65.35C72.8949 64.8368 73.4717 64.5499 73.9962 64.7092L95.4964 71.2363C96.0209 71.3956 96.2944 71.9406 96.1074 72.4537L93.0698 80.7851Z" fill="#97A9BF"/>
<path d="M75.5052 55.2633L98.9579 63.1357" stroke="#333333" stroke-miterlimit="10" stroke-linecap="round"/>
<path d="M74.2339 59.0508L97.6866 66.9232" stroke="#333333" stroke-miterlimit="10" stroke-linecap="round"/>
<path d="M88.0033 29.1799L87.8196 23.2278L108.825 29.6851L105.323 34.3698C104.797 35.0733 103.872 35.3787 103.041 35.1231L89.3443 30.9127C88.5609 30.6719 88.0281 29.9834 88.0033 29.1799Z" fill="#333333"/>
<path d="M103.117 31.6341C102.987 32.0007 102.58 32.2037 102.207 32.0874L97.3739 30.5791C97.0012 30.4628 96.8042 30.0713 96.9339 29.7046C97.0636 29.3379 97.4709 29.135 97.8436 29.2513L102.677 30.7595C103.049 30.8759 103.246 31.2674 103.117 31.6341Z" fill="#F2F2F2"/>
<path d="M95.8098 29.2059C95.6814 29.5586 95.2852 29.7556 94.9249 29.6461L93.1749 29.1141C92.8145 29.0045 92.6265 28.6299 92.7549 28.2772C92.8832 27.9246 93.2794 27.7275 93.6398 27.8371L95.3898 28.3691C95.7501 28.4786 95.9382 28.8533 95.8098 29.2059Z" fill="#F2F2F2"/>
<path d="M90.6374 88.8614C90.4552 89.3754 89.8838 89.6601 89.3612 89.4973L67.5663 82.7072C67.0436 82.5444 66.7676 81.9957 66.9498 81.4817L68.1676 78.0455C68.3498 77.5314 68.9211 77.2468 69.4438 77.4096L91.2387 84.1997C91.7613 84.3625 92.0374 84.9112 91.8552 85.4252L90.6374 88.8614Z" fill="white" stroke="#333333" stroke-miterlimit="10"/>
<path d="M44.497 52.9896L47.117 51.6026L49.3462 44.6494L53.9257 47.0038L50.6559 55.4972L45.1421 58.4088L44.497 52.9896Z" fill="#EFEFF0"/>
<path d="M44.497 52.9897L47.1168 51.6028L49.3459 44.6497L50.8506 44.6335L53.9251 47.0041L50.6555 55.4973L45.1421 58.4088L44.497 52.9897Z" stroke="#333333" stroke-miterlimit="10"/>
<path d="M45.0766 58.4212C44.8652 54.7362 50.718 55.4548 50.718 55.4548L54.0616 46.8059L58.424 51.6256L54.2027 58.8009L45.3301 60.7686L45.0766 58.4212Z" fill="#EFEFF0"/>
<path d="M45.0766 58.4212C44.8652 54.7362 50.718 55.4548 50.718 55.4548L54.0616 46.8059L58.424 51.6256L54.2027 58.8009L45.3301 60.7686L45.0766 58.4212Z" stroke="#333333" stroke-miterlimit="10"/>
<path d="M62.6671 57.3304C62.6671 57.3304 60.0323 64.2767 58.3922 65.1391C56.7499 66.0015 52.9897 64.3227 49.2529 63.1919C45.5162 62.0588 46.1365 60.6006 48.2378 59.2714C50.3411 57.9469 53.0976 58.3997 54.3253 58.794C55.5508 59.186 56.2519 51.2936 58.4948 51.713L62.6671 57.3304Z" fill="#EFEFF0"/>
<path d="M62.6671 57.3304C62.6671 57.3304 60.0323 64.2767 58.3922 65.1391C56.7499 66.0015 52.9897 64.3227 49.2529 63.1919C45.5162 62.0588 46.1365 60.6006 48.2378 59.2714C50.3411 57.9469 53.0976 58.3997 54.3253 58.794C55.5508 59.186 56.2519 51.2936 58.4948 51.713L62.6671 57.3304Z" stroke="#333333" stroke-miterlimit="10"/>
<path d="M13.5372 17.174C13.5372 17.174 24.9939 25.5437 31.0469 33.9998C33.84 37.8959 34.5045 43.702 35.4865 48.1505C37.3855 56.7433 37.2336 56.4356 39.5133 61.3728C41.3866 65.4335 44.0658 66.8989 44.9275 62.1787C45.5932 58.5389 40.555 46.056 48.9544 44.7485C53.9304 43.9703 64.4318 61.3027 66.9096 64.5418C72.5961 71.9751 77.2862 68.0955 74.1954 63.8596C71.8103 60.5921 68.8493 55.2585 65.5423 49.9815C60.6152 42.1171 55.5492 33.2288 53.0588 30.0767C48.8839 24.7891 34.5662 8.47123 29.4117 2.61477C28.2538 1.29919 26.4665 0.713057 24.7857 1.33876C20.3346 2.99575 12.1931 7.40048 13.5372 17.174Z" fill="#EFEFF0"/>
<path d="M13.3901 15.2218C13.4032 16.4785 14.0754 17.6006 15.0294 18.3954C18.4337 21.2318 26.8455 28.5287 31.5944 35.1629C34.3875 39.059 34.5045 43.702 35.4865 48.1505C37.3855 56.7433 37.2336 56.4356 39.5133 61.3728C41.3866 65.4335 44.0658 66.8989 44.9275 62.1787C45.5932 58.5389 40.555 46.056 48.9544 44.7485C53.9304 43.9703 64.4318 61.3027 66.9096 64.5418C72.5961 71.9751 77.2862 68.0955 74.1954 63.8596C71.8103 60.5921 68.8493 55.2585 65.5423 49.9815C60.6152 42.1171 55.5492 33.2288 53.0588 30.0767C48.8839 24.7891 34.5662 8.47122 29.4117 2.61476C28.2538 1.29918 26.4665 0.713057 24.7857 1.33876C20.6426 2.88112 13.3019 6.80418 13.3901 15.2218Z" stroke="#333333" stroke-miterlimit="10"/>
<path d="M27.8138 60.4932V61.9804" stroke="#333333" stroke-miterlimit="10" stroke-linecap="round"/>
<path d="M21.5263 64.2169L22.3759 64.7078" stroke="#333333" stroke-miterlimit="10" stroke-linecap="round"/>
<path d="M21.6073 71.5238L22.3756 71.0806" stroke="#333333" stroke-miterlimit="10" stroke-linecap="round"/>
<path d="M27.9756 74.5687V73.5724" stroke="#333333" stroke-miterlimit="10" stroke-linecap="round"/>
<path d="M34.2631 71.3822L32.964 70.6314" stroke="#333333" stroke-miterlimit="10" stroke-linecap="round"/>
<path d="M33.7011 64.3538L32.8785 64.8272" stroke="#333333" stroke-miterlimit="10" stroke-linecap="round"/>
<path d="M27.8557 64.3538V67.188" stroke="#333333" stroke-miterlimit="10" stroke-linecap="round"/>
<path d="M24.8904 66.1097L27.3468 67.5284" stroke="#333333" stroke-miterlimit="10" stroke-linecap="round"/>
<path d="M24.9293 69.5562L27.3841 68.1376" stroke="#333333" stroke-miterlimit="10" stroke-linecap="round"/>
<path d="M27.9337 71.2451V68.4109" stroke="#333333" stroke-miterlimit="10" stroke-linecap="round"/>
<path d="M30.899 69.4893L28.4426 68.0706" stroke="#333333" stroke-miterlimit="10" stroke-linecap="round"/>
<path d="M30.8602 66.0429L28.4054 67.4615" stroke="#333333" stroke-miterlimit="10" stroke-linecap="round"/>
</g>
<defs>
<clipPath id="clip0_8_2">
<rect width="123" height="153" fill="white"/>
</clipPath>
</defs>
</svg>
